<?xml version="1.0" standalone="no"?>
<!DOCTYPE svg PUBLIC "-//W3C//DTD SVG 1.1//EN" "http://www.w3.org/Graphics/SVG/1.1/DTD/svg11.dtd" >
<svg xmlns="http://www.w3.org/2000/svg" xmlns:xlink="http://www.w3.org/1999/xlink" version="1.1">
<metadata>
Created by FontForge 20190801 at Sat Feb  9 02:18:53 2019
 By Jimmy Wärting
</metadata>
<defs>
<font id="ThunderDemoRegular" horiz-adv-x="0" >
  <font-face 
    font-family="Thunder Demo"
    font-weight="400"
    font-stretch="normal"
    units-per-em="1000"
    panose-1="0 0 0 0 0 0 0 0 0 0"
    ascent="800"
    descent="-200"
    x-height="410"
    cap-height="708"
    bbox="-523 -340 1133 842"
    underline-thickness="50"
    underline-position="-150"
    unicode-range="U+000A-F03B"
  />
<missing-glyph horiz-adv-x="527" 
d="M50 700h427v-700h-427v700zM78 680l185 -309l186 309h-371zM251 350l-180 300v-601zM264 329l-185 -308h370zM276 350l181 -303v605z" />
    <glyph glyph-name="Th.liga" unicode="Th" horiz-adv-x="854" 
d="M813 112q-90 -114 -154 -113q-40 0 -64.5 16t-31.5 41t-5.5 49t8.5 45q10 24 20.5 49t19.5 43.5t18 35.5t15 28.5t9.5 20t3.5 11.5q0 5 -7 5h-1q-14 -2 -35 -19q-19 -16 -42 -45q-22 -27 -45 -61q-22 -34 -40 -68q-19 -36 -31 -65q-7 -18 -10 -30q-6 -25 -7 -58
q0 -6 -6 -7q-43 -6 -76 19t-33 65q0 50 49.5 155t115.5 203q0 1 1 2.5t2 2.5q35 51 75 92q0 1 -1.5 1.5t-2.5 0.5q-65 29 -98 43q-42 -57 -95.5 -146.5t-107.5 -195t-88.5 -211t-31.5 -172.5q-54 -11 -96.5 20.5t-41.5 81.5q0 64 59.5 194t143.5 260.5t154 204.5
q-143 42 -313 42q-72 0 -123 -25.5t-75 -68.5q0 1 -7.5 9.5t-11 13t-10.5 16.5t-11 22.5t-7 26.5t-3 33q0 29 13.5 56.5t42 52t79.5 39.5t119 15q46 0 98.5 -12t97.5 -29.5t101.5 -45.5t97.5 -51.5t99 -57t94 -52.5q120 87 264 87q92 0 134 -61q36 -51 9 -104
q-34 -65 -140 -71h-17q-116 0 -238 48h-1q-6 -7 -13 -18v-1q-8 -10 -15 -22q-1 -2 -3.5 -6t-4.5 -6q-41 -67 -79 -143q101 119 155 119q21 0 42 -7.5t37 -25t16 -41.5q0 -21 -19 -56t-38 -71.5t-19 -62.5q0 -21 19 -21q9 0 22.5 7t27 19t24.5 21.5t21.5 21t11.5 12.5
q14 13 17 13q7 0 12.5 -9t5.5 -22.5t-55 -81.5v0zM914 633q-31 0 -83.5 -17t-101.5 -51q109 -50 184 -50q41 0 58.5 17.5t17.5 43.5q0 14 -7.5 26.5t-25 21.5t-42.5 9z" />
    <glyph glyph-name=".notdef" horiz-adv-x="527" 
d="M50 700h427v-700h-427v700zM78 680l185 -309l186 309h-371zM251 350l-180 300v-601zM264 329l-185 -308h370zM276 350l181 -303v605z" />
    <glyph glyph-name=".null" 
 />
    <glyph glyph-name=".null" 
 />
    <glyph glyph-name="nonmarkingreturn" horiz-adv-x="333" 
 />
    <glyph glyph-name="controlLF" unicode="&#xa;" 
 />
    <glyph glyph-name="controlCR" unicode="&#xd;" 
 />
    <glyph glyph-name="space" unicode=" " horiz-adv-x="303" 
 />
    <glyph glyph-name="exclam" unicode="!" horiz-adv-x="467" 
d="M98 -3q36 0 54.5 -26t8.5 -61q-7 -27 -21.5 -46.5t-33.5 -30t-41 -10.5q-34 -1 -53.5 25t-9.5 61q6 24 20.5 44t34.5 32t41 12zM514 604q3 -9 -5 -16q-39 -31 -151 -205t-148 -269q-10 -24 -35.5 -28.5t-41.5 16.5q-24 30 -24 61q0 32 62.5 153t140 232.5t110.5 111.5
q40 0 63 -17t29 -39z" />
    <glyph glyph-name="quotedbl" unicode="&#x22;" horiz-adv-x="414" 
d="M207 779q8 -16 -4 -31q-24 -29 -55.5 -76.5t-39.5 -71.5q-3 -12 -15 -8q-17 6 -30 20t-13 35q0 36 40 96.5t76 60.5q29 0 41 -25zM361 779q8 -16 -4 -31q-24 -29 -55.5 -76.5t-38.5 -71.5q-4 -12 -16 -8q-17 6 -30 20t-13 35q0 22 17.5 58.5t46 67.5t52.5 31q29 0 41 -25
z" />
    <glyph glyph-name="quotedbl" unicode="&#x201d;" horiz-adv-x="414" 
d="M207 779q8 -16 -4 -31q-24 -29 -55.5 -76.5t-39.5 -71.5q-3 -12 -15 -8q-17 6 -30 20t-13 35q0 36 40 96.5t76 60.5q29 0 41 -25zM361 779q8 -16 -4 -31q-24 -29 -55.5 -76.5t-38.5 -71.5q-4 -12 -16 -8q-17 6 -30 20t-13 35q0 22 17.5 58.5t46 67.5t52.5 31q29 0 41 -25
z" />
    <glyph glyph-name="quotedbl" unicode="&#x201c;" horiz-adv-x="414" 
d="M207 779q8 -16 -4 -31q-24 -29 -55.5 -76.5t-39.5 -71.5q-3 -12 -15 -8q-17 6 -30 20t-13 35q0 36 40 96.5t76 60.5q29 0 41 -25zM361 779q8 -16 -4 -31q-24 -29 -55.5 -76.5t-38.5 -71.5q-4 -12 -16 -8q-17 6 -30 20t-13 35q0 22 17.5 58.5t46 67.5t52.5 31q29 0 41 -25
z" />
    <glyph glyph-name="numbersign" unicode="#" horiz-adv-x="1004" 
d="M954 439q3 -15 -8 -26t-26 -8q-62 11 -176 21q-41 -69 -77 -134q200 -22 218 -50q9 -14 12 -30q3 -15 -8 -26t-26 -8q-82 14 -243 27q-111 -214 -110 -281q0 -9 -8 -15t-17 -2q-12 6 -22 19t-15 27.5t-6 30.5q-4 52 83 227q-91 5 -168 6q-118 -224 -117 -293
q1 -9 -7.5 -15t-16.5 -2q-13 6 -22.5 19t-14.5 27.5t-6 30.5q-5 53 85 232q-136 -5 -180 -30q-9 -5 -18 -0.5t-10 14.5q-1 21 13.5 42t35.5 34q42 27 207 32q35 65 75 132q-149 -5 -199 -32q-9 -5 -18 -0.5t-10 14.5q-1 21 13.5 42t35.5 34q48 31 234 33q37 59 68 103
t55.5 71t35.5 28q16 1 31 -4q14 -4 18.5 -18t-4.5 -26q-33 -43 -103 -154q82 -3 162 -10q58 93 103.5 151.5t62.5 60.5q16 1 31 -4q14 -4 18.5 -18t-4.5 -26q-38 -48 -116 -175q132 -18 147 -41q9 -14 12 -30zM571 300q36 66 75 133q-86 6 -163 7q-40 -67 -76 -132
q81 -2 164 -8z" />
    <glyph glyph-name="dollar" unicode="$" horiz-adv-x="424" 
d="M373 609q23 -18 34 -48.5t11 -62.5q0 -39 -13 -73.5t-33 -53t-41 -18.5q-63 0 -63 45q67 77 67 150q0 10 -7.5 17t-17.5 7q-14 0 -33 -10.5t-37 -29t-30.5 -50.5t-12.5 -69q0 -28 13 -56.5t30.5 -48.5t34 -45.5t24 -49t-0.5 -58.5q-14 -58 -58.5 -91t-95.5 -33
q-10 0 -23 1q-13 -36 -30 -70t-27 -36q-14 -3 -29.5 7t-17.5 22q-2 17 43 94q-62 32 -62 97q0 73 65 91q9 3 16 -3.5t5 -15.5q-3 -15 -3 -28.5t4 -28.5t17.5 -24t36.5 -9q27 0 50.5 19.5t26.5 53.5t-42 80q-73 75 -73 148q0 13 3 27.5t8.5 31.5t14.5 33.5t21 32t29 29t37 24
t46 16.5t56 6q0 -1 1 -1q12 34 35 76.5t33 43.5q10 2 20.5 -2.5t18 -12.5t7.5 -15q1 -21 -58 -109z" />
    <glyph glyph-name="percent" unicode="%" horiz-adv-x="578" 
d="M92 342q-26 0 -45 11.5t-28 28.5t-13 32t-4 26q-2 67 51 127t117 60q45 0 70 -24t26 -68q1 -35 -22.5 -79.5t-65.5 -79t-86 -34.5zM68 449q-1 -11 0 -23t7.5 -23.5t18.5 -11.5q34 0 70.5 50t39.5 92q2 22 -5 36.5t-22 14.5q-38 0 -71.5 -46t-37.5 -89zM403 247
q45 0 70 -24t26 -68q0 -35 -23 -79.5t-65 -79t-86 -34.5q-26 0 -45 11.5t-28 28.5t-13.5 31.5t-4.5 26.5q-1 67 51.5 127t117.5 60zM437 152q1 15 -1.5 26.5t-9.5 18.5t-17 7q-38 0 -71.5 -46t-36.5 -90q-1 -11 0 -22.5t7.5 -23t18.5 -11.5q34 0 70 50t40 91zM522 520
q20 0 34.5 -12.5t21 -26.5t6.5 -23q-34 0 -95.5 -33.5t-128.5 -84.5t-138 -111.5t-127 -114t-91.5 -93t-35.5 -48.5q-20 0 -30 11.5t-10 28.5q0 22 76.5 104t175 171.5t199.5 160.5t143 71z" />
    <glyph glyph-name="ampersand" unicode="&#x26;" horiz-adv-x="648" 
d="M719 102q12 -29 -1 -64.5t-43.5 -64.5t-80 -45.5t-102.5 -7.5q-97 15 -169 94q-131 -65 -248 -43q-35 6 -64.5 28t-47 56.5t-17.5 74t13 74.5t32.5 60.5t51.5 50t59.5 41t67.5 36.5q-11 78 -11 145q0 86 36.5 148.5t97 89t132.5 13.5q82 -16 110 -83t-5 -156
q-11 -32 -33 -59.5t-55.5 -51.5t-61.5 -40t-73 -39q33 -88 80 -158q87 75 96 154q0 5 3 9t8 5.5t9 0.5q36 -7 53 -39.5t6 -82.5q-13 -59 -96 -135q42 -35 83 -39q30 -4 58.5 0.5t48 13.5t31.5 20q7 7 17 5t15 -11zM136 86q45 0 116 32q-39 77 -63 178q-84 -51 -111 -106
q-19 -41 1.5 -72.5t56.5 -31.5zM276 612q-18 -61 5 -163q61 33 94 59.5t51 60.5q5 9 9 18.5t8.5 28.5t2 33.5t-17 28.5t-41.5 19q-10 2 -24 -0.5t-31 -10.5t-32 -27.5t-24 -46.5z" />
    <glyph glyph-name="quotesingle" unicode="'" horiz-adv-x="72" 
d="M156 779q8 -16 -4 -31q-24 -29 -55.5 -76.5t-39.5 -71.5q-3 -12 -15 -8q-17 6 -30 20t-13 35q0 16 11 42t27 51.5t37.5 44.5t40.5 19q29 0 41 -25z" />
    <glyph glyph-name="quotesingle" unicode="&#x2019;" horiz-adv-x="72" 
d="M156 779q8 -16 -4 -31q-24 -29 -55.5 -76.5t-39.5 -71.5q-3 -12 -15 -8q-17 6 -30 20t-13 35q0 16 11 42t27 51.5t37.5 44.5t40.5 19q29 0 41 -25z" />
    <glyph glyph-name="quotesingle" unicode="&#x2018;" horiz-adv-x="72" 
d="M156 779q8 -16 -4 -31q-24 -29 -55.5 -76.5t-39.5 -71.5q-3 -12 -15 -8q-17 6 -30 20t-13 35q0 16 11 42t27 51.5t37.5 44.5t40.5 19q29 0 41 -25z" />
    <glyph glyph-name="parenleft" unicode="(" horiz-adv-x="613" 
d="M505 711q27 0 42.5 -18t15.5 -41q-1 -2 -13.5 -8t-32 -18.5t-43.5 -29.5t-56 -46.5t-62 -63.5q-206 -235 -206 -449q0 -31 9 -76.5t19 -66.5q-51 0 -89.5 38.5t-38.5 118.5q0 83 29 170t74 157t99 133.5t105 106.5t91 68t57 25z" />
    <glyph glyph-name="parenright" unicode=")" horiz-adv-x="613" 
d="M435 706q51 0 89.5 -38.5t38.5 -118.5q0 -83 -29 -170t-74 -157t-99 -133.5t-105.5 -106.5t-91 -68t-57.5 -25q-26 0 -41.5 18t-15.5 41q1 2 13 8t32 18t44 29.5t56 46.5t62 64q206 235 206 449q0 30 -9 76t-19 67z" />
    <glyph glyph-name="asterisk" unicode="*" horiz-adv-x="337" 
d="M275 715q9 -6 11 -18t-3 -18q-3 -4 -75 -33q62 -64 60 -73q-4 -11 -13.5 -16.5t-17.5 -3.5q-6 1 -59 60q-27 -73 -32 -87q-7 -2 -16 3.5t-11 14.5q-2 8 17 74q-62 -25 -78 -31q-6 5 -7.5 14.5t3.5 18.5q5 7 80 42q-52 58 -62 69q2 7 10.5 12.5t17.5 3.5q8 -3 59 -52
q26 76 34 78q11 3 21 -3t11 -14q2 -5 -18 -62q62 26 68 21z" />
    <glyph glyph-name="plus" unicode="+" horiz-adv-x="479" 
d="M420 403q8 -3 9 -18t-3.5 -31t-13 -28t-17.5 -9q-21 5 -123 5q-25 -96 -25 -148q0 -24 -30 -12q-32 12 -46 38q-4 9 -4 17q2 35 17 104q-90 -3 -113 -7q-19 -4 -21 20q-2 32 20 57q10 10 20 12q29 5 117 8q33 118 52 141q10 8 29.5 1t36 -23t10.5 -26q-12 -20 -36 -92
q100 0 121 -9z" />
    <glyph glyph-name="comma" unicode="," horiz-adv-x="260" 
d="M138 123q27 -11 49 -27t22 -32q0 -24 -41 -76t-87.5 -93.5t-63 -41.5t-32.5 16t-25 36q-4 7 -1 14.5t10 11.5q32 15 74.5 75t62.5 105q3 5 8 9t11 4.5t13 -1.5z" />
    <glyph glyph-name="hyphen" unicode="-" horiz-adv-x="479" 
d="M420 408q8 -4 9 -18.5t-3.5 -30.5t-13 -28t-17.5 -9q-29 6 -160.5 4.5t-163.5 -7.5q-19 -4 -21 20q-2 32 20 57q10 10 20 12q43 7 168.5 9t161.5 -9z" />
    <glyph glyph-name="period" unicode="." horiz-adv-x="265" 
d="M149 137q24 0 41 -12t22.5 -31.5t-0.5 -43.5q-7 -27 -21.5 -46.5t-33.5 -30t-41 -10.5q-34 -1 -53.5 25t-9.5 61q10 37 37 62.5t59 25.5z" />
    <glyph glyph-name="slash" unicode="/" horiz-adv-x="629" 
d="M515 769q15 0 26.5 -3t18 -7.5t11 -10.5t6 -11.5t2 -10t0.5 -7.5l-1 -3q-10 -10 -27.5 -29.5t-71.5 -88.5t-108 -148t-128.5 -208.5t-140.5 -270.5q-9 -20 -31 11q-25 35 -20 62q0 3 1 5q41 109 115 242t144.5 235.5t128.5 172.5t75 70z" />
    <glyph glyph-name="zero" unicode="0" horiz-adv-x="605" 
d="M417 672h8q8 1 18.5 0t23 -1t25.5 -3t26.5 -6.5t26.5 -11.5t24.5 -17t21.5 -23.5t17.5 -32t11.5 -41.5t4 -51q1 -106 -37 -215t-99 -193t-143 -137.5t-164 -53.5q-21 0 -41.5 4t-44.5 16.5t-42.5 32t-32.5 54.5t-18 80q-7 82 11 169t57.5 162.5t92.5 136.5t119.5 96
t134.5 35zM498 447q6 52 -14.5 84t-62.5 32q-59 0 -127.5 -76t-119.5 -208q-12 -30 -21 -73t-11.5 -88t10.5 -76t43 -31q46 0 91.5 34t80.5 86t64 112.5t45.5 114t21.5 89.5z" />
    <glyph glyph-name="one" unicode="1" horiz-adv-x="315" 
d="M389 671q25 9 54.5 -5t29.5 -46q-8 0 -37 -38t-68 -98.5t-82 -140t-79 -158.5t-60 -159t-24 -137q0 -6 -4.5 -10.5t-10.5 -4.5q-48 -4 -77 26t-29 78q0 73 66 218.5t153 280.5q-28 6 -44.5 24t-16.5 42q29 0 78.5 25t100.5 65q23 24 41 33v1q5 2 9 4z" />
    <glyph glyph-name="two" unicode="2" horiz-adv-x="603" 
d="M414 67q59 0 91.5 -10t42.5 -25t10 -40q0 -33 -34 -76t-70 -43q-84 61 -238.5 54t-281.5 -67q-3 -2 -9.5 7.5t-12 26t-4.5 32.5q2 14 23 30v0q10 8 25 15q309 190 412 283l24 21q33 30 49.5 45.5t42.5 40.5t38.5 42t26.5 38.5t19.5 42t5.5 41.5q0 22 -13.5 31t-44.5 9
q-52 0 -134 -64.5t-125 -150.5q-18 0 -33.5 9.5t-24 24t-15.5 30t-7 27.5t1 17q10 21 41 54.5t76.5 71t108 64t122.5 26.5q79 0 124 -40.5t45 -116.5q0 -52 -34.5 -116.5t-89.5 -125.5t-120.5 -116.5t-132.5 -97.5q54 6 96 6z" />
    <glyph glyph-name="three" unicode="3" horiz-adv-x="568" 
d="M629 528q0 -67 -51 -135t-123 -115q65 -60 54 -167q-4 -34 -20 -70.5t-45.5 -72t-68 -62.5t-91.5 -40t-110 -6q-85 12 -127 55t-42 107q0 34 19.5 72.5t44.5 38.5q0 -12 7 -31t19 -40t32 -38.5t42 -23.5q53 -14 105 6t84 63.5t32 94.5q0 43 -42 68q-9 -2 -16 -2
q-33 0 -50.5 23.5t-22.5 52.5q-2 9 3.5 16.5t14.5 8.5q49 6 105 37.5t94 74.5t38 79q0 14 -3.5 25t-11 18.5t-18 12t-24.5 4.5q-31 0 -71 -22t-71 -59.5t-31 -76.5q-28 0 -50.5 37t-13.5 65q17 62 93 106t166 44q39 0 69 -12.5t47 -34.5t25.5 -47.5t8.5 -53.5z" />
    <glyph glyph-name="four" unicode="4" horiz-adv-x="628" 
d="M727 598q-9 0 -43 -46t-83.5 -126.5t-92.5 -165.5q56 -19 56 -70q0 -26 -17.5 -45.5t-32.5 -19.5q-8 17 -59 23q-77 -177 -77 -281q0 -6 -4.5 -10.5t-10.5 -4.5q-47 -4 -72 30t-24 85q0 60 48 177q-51 -7 -115 -18.5t-105 -20t-43 -8.5q-5 0 -14.5 12.5t-18.5 29.5
q-28 44 -14 56q38 32 128 133t168.5 205.5t78.5 132.5q24 0 44 -18t20 -53q0 -38 -75.5 -147t-165.5 -209q91 16 169 24q35 67 75.5 134t79.5 121t74 90.5t57 45.5q24 8 46.5 -7.5t22.5 -48.5z" />
    <glyph glyph-name="five" unicode="5" horiz-adv-x="514" 
d="M452 503q-105 -11 -196 6q-31 -53 -66 -133q52 18 111 18q37 0 64 -7t50 -25.5t33 -55.5t5 -92q-7 -68 -38.5 -132t-81.5 -114.5t-120.5 -81t-148.5 -30.5q-76 0 -114 35.5t-38 93.5q0 52 25 70q8 5 17 1t11 -13q8 -45 58 -45q52 0 99.5 12.5t82.5 33t63.5 46t46 53
t27 53.5t9.5 47q0 27 -21 41.5t-55 14.5q-29 0 -69.5 -22.5t-64.5 -50.5q-4 -5 -10 -6q-6 -5 -12 -2q-23 11 -44.5 33.5t-21.5 43.5q0 17 35 95.5t73 147.5q-17 9 -17 13q-1 6 11 30.5t29 48t29 24.5q6 1 53.5 -6t100 -12.5t113 -0.5t94.5 25q10 7 21 1t12 -19q1 -21 -5 -41
t-21 -41.5t-48.5 -37t-80.5 -19.5z" />
    <glyph glyph-name="six" unicode="6" horiz-adv-x="616" 
d="M558 552q-122 17 -224 -47t-160 -180q102 92 201 84q83 -8 122 -73t17 -171q-21 -101 -82.5 -174.5t-145.5 -102t-168 -1.5q-51 16 -82 58.5t-38.5 100t1.5 121.5t33 127q33 85 84 154t105.5 111.5t110.5 70t101.5 36t76.5 2.5q21 -4 34.5 -18.5t18 -32t3 -35.5t-7.5 -30
zM352 306q-33 10 -72 -3.5t-70.5 -40.5t-56 -61.5t-33.5 -65.5q-4 -62 18 -92.5t53 -34.5q67 -10 126.5 47.5t77.5 140.5q19 92 -43 110z" />
    <glyph glyph-name="seven" unicode="7" horiz-adv-x="401" 
d="M545 654q28 -16 34 -53.5t-12 -59.5q-9 0 -58.5 -49t-115 -128.5t-128.5 -168t-104.5 -180.5t-37.5 -152q-50 -10 -88.5 18.5t-38.5 75.5q0 50 64.5 154t154.5 212t178 193q-204 -29 -289 -1q-15 5 -31 25.5t-24 53.5t13 71q70 -18 148.5 -23.5t133 -2t116.5 9t85 5.5z
" />
    <glyph glyph-name="eight" unicode="8" horiz-adv-x="612" 
d="M648 530q3 -32 -9.5 -64.5t-31 -55.5t-48.5 -48t-49 -37.5t-47 -28.5t-29 -17q45 -27 68.5 -60t28.5 -85q3 -39 -22 -84.5t-69 -84.5t-108.5 -65t-132.5 -26q-37 0 -67.5 8t-50 19t-34.5 28.5t-22.5 31.5t-12.5 33t-6 28t-2 22q0 2 -1 4q-3 43 21.5 87t65 77.5t83 58
t80.5 37.5q-38 34 -49.5 79.5t-1.5 86.5q3 12 8 26.5t16.5 34.5t26 38.5t37.5 37.5t50 33t64.5 23t80.5 9q63 0 110 -36.5t53 -109.5zM192 5q38 0 76.5 17t66 41.5t45 51.5t18.5 46q1 34 -17.5 57.5t-32.5 23.5q-1 0 -18 -9.5t-42 -25t-53.5 -36.5t-52.5 -43t-39 -45.5
t-13 -42.5q3 -35 62 -35zM514 466q12 12 19.5 31t3.5 43.5t-27 37.5q-36 20 -100 -22.5t-86 -89.5q-6 -14 -9.5 -35.5t2 -48t21.5 -40.5q11 4 28 11.5t63.5 39.5t84.5 73z" />
    <glyph glyph-name="nine" unicode="9" horiz-adv-x="593" 
d="M460 673q51 -16 82 -59t38 -100t-1.5 -121.5t-33.5 -127.5q-32 -84 -83.5 -153.5t-105.5 -111.5t-110 -69.5t-101.5 -36.5t-76.5 -3q-21 5 -35 19t-18 32t-2.5 35.5t7.5 30.5q121 -17 223.5 46.5t160.5 180.5q-102 -93 -201 -84q-83 7 -122 72.5t-17 171.5
q21 100 82.5 174t145.5 102t168 2zM226 254q34 -10 73.5 4t71.5 42t56 63t33 67q4 68 -16 106.5t-49 42.5q-44 7 -89.5 -25t-78 -84t-44.5 -107q-20 -92 43 -109z" />
    <glyph glyph-name="colon" unicode=":" horiz-adv-x="439" 
d="M149 137q36 0 54.5 -26t8.5 -61q-11 -40 -37 -63.5t-59 -23.5q-34 -1 -53.5 25t-9.5 61q10 37 37 62.5t59 25.5zM322 523q36 0 54.5 -25.5t8.5 -61.5q-10 -39 -36.5 -63t-59.5 -24q-34 0 -53 26t-10 61q10 37 37 62t59 25z" />
    <glyph glyph-name="semicolon" unicode=";" horiz-adv-x="499" 
d="M383 518q36 0 54.5 -25.5t8.5 -60.5q-11 -40 -37.5 -64t-59.5 -24t-52.5 26t-9.5 61q9 37 36.5 62t59.5 25zM230 134q27 -11 49 -27t22 -32q0 -24 -41 -76t-87.5 -93.5t-63 -41.5t-32.5 16t-25 36q-4 7 -1 14.5t10 11.5q32 15 74.5 75t62.5 104q4 9 13.5 13t18.5 0z" />
    <glyph glyph-name="less" unicode="&#x3c;" horiz-adv-x="534" 
d="M462 530q11 0 19 -30t-4 -35q-29 -12 -296 -117q240 -53 239 -65q0 -17 -18.5 -52.5t-43.5 -40.5q-22 -5 -149 30.5t-157 63.5q-2 1 -2 4q2 32 11 65t23 38q5 2 64 25t122.5 47.5t122 45.5t69.5 21z" />
    <glyph glyph-name="equal" unicode="=" horiz-adv-x="520" 
d="M420 330q8 -4 9 -19t-3.5 -30.5t-13 -27.5t-17.5 -10q-17 5 -88.5 5.5t-143.5 -1.5t-92 -6q-19 -4 -21 20q-2 32 20 57q10 10 20 12q43 7 168.5 9t161.5 -9zM461 496q8 -4 9 -19t-4 -30.5t-13.5 -27.5t-16.5 -10q-29 7 -160.5 5.5t-163.5 -8.5q-20 -3 -21 21q-3 32 19 56
q10 10 20 13q44 7 169 8.5t162 -8.5z" />
    <glyph glyph-name="greater" unicode="&#x3e;" horiz-adv-x="534" 
d="M482 436q2 -1 2 -4q-2 -32 -11 -65t-23 -38q-2 -1 -95.5 -38t-181 -69t-101.5 -32q-11 0 -19 30t4 35q29 12 296 117q-240 53 -240 65q1 17 19.5 52.5t43.5 40.5q22 5 149 -30.5t157 -63.5z" />
    <glyph glyph-name="question" unicode="?" horiz-adv-x="732" 
d="M149 37q36 0 54.5 -26t8.5 -61q-11 -40 -37 -63.5t-59 -23.5q-34 -1 -53.5 25t-9.5 61q10 37 37 62.5t59 25.5zM448 712q55 0 97 -10t73.5 -32t47.5 -58t16 -87q0 -19 -7.5 -38.5t-19 -36t-29.5 -35t-35 -32.5t-39.5 -30.5t-39 -27t-38 -24.5t-31.5 -21
q-14 -10 -48 -31.5t-60 -39t-54.5 -38.5t-44 -39t-15.5 -32q-18 0 -42 18t-24 50q0 23 30 56t75.5 67t98.5 74t98.5 75t76 71t30.5 62q0 28 -17.5 38t-48.5 10q-46 0 -110 -36.5t-110.5 -86t-46.5 -83.5q-13 0 -29.5 14t-29.5 37t-13 44q0 23 25.5 57.5t65 66.5t93.5 55
t105 23z" />
    <glyph glyph-name="at" unicode="@" horiz-adv-x="844" 
d="M729 189q23 26 32 2q10 -26 -9 -61l-10 -14q-33 -38 -66.5 -66.5t-80 -57t-105.5 -44t-126 -15.5q-82 0 -143.5 24t-98 67.5t-54.5 99t-18 124.5q0 62 13 118.5t35.5 100t52 81t64.5 64t71 47t72.5 32.5t68.5 18t60 6q91 0 174 -46.5t111 -118.5q19 -48 21.5 -90.5
t-12 -79.5t-38 -68t-59.5 -64l-16 -14q-37 -37 -78 -59t-74 -22t-51.5 20.5t-21.5 56.5q-11 -12 -23 -23.5t-27 -24t-31 -20.5t-32.5 -12.5t-33.5 -1.5t-32 15q-36 28 -32.5 77.5t24.5 96t47 75.5q30 32 70 55t79 23q56 0 72 -43q35 47 59 47q30 0 45 -17t15 -30
q0 -4 -14 -25t-30.5 -45t-30 -52.5t-13.5 -46.5q0 -27 22 -27q26 0 61 31q1 2 9 10q9 9 20.5 22t13.5 15q17 22 27.5 54.5t9.5 74t-21 75.5q-16 29 -71 60.5t-119 31.5q-70 0 -139 -31.5t-119.5 -82t-81.5 -117t-31 -132.5q0 -38 5 -68.5t21 -64t42.5 -56t74.5 -37
t112 -14.5q184 0 338 167zM359 270q33 0 75.5 47.5t42.5 82.5q0 29 -23 29q-32 0 -76 -44t-44 -85q0 -9 3 -16t9 -10.5t13 -3.5z" />
    <glyph glyph-name="A" unicode="A" horiz-adv-x="713" 
d="M764 729q16 7 43.5 -20t27.5 -52q-56 -72 -118 -219t-103 -306.5t-35 -253.5q0 -6 -4 -11t-10 -6q-50 -7 -88.5 21.5t-41.5 75.5q-4 74 60 250q-60 22 -131 37q-136 -190 -167 -336q-3 -14 -17 -13q-50 6 -80 43.5t-21 83.5q16 82 139 242q-126 7 -209 -24q-17 41 17 88
t104 58q68 10 174 -20q106 119 226 216t234 146zM521 278q56 139 122 257q-132 -108 -218 -211q52 -22 96 -46z" />
    <glyph glyph-name="A" unicode="&#xc5;" horiz-adv-x="713" 
d="M764 729q16 7 43.5 -20t27.5 -52q-56 -72 -118 -219t-103 -306.5t-35 -253.5q0 -6 -4 -11t-10 -6q-50 -7 -88.5 21.5t-41.5 75.5q-4 74 60 250q-60 22 -131 37q-136 -190 -167 -336q-3 -14 -17 -13q-50 6 -80 43.5t-21 83.5q16 82 139 242q-126 7 -209 -24q-17 41 17 88
t104 58q68 10 174 -20q106 119 226 216t234 146zM521 278q56 139 122 257q-132 -108 -218 -211q52 -22 96 -46z" />
    <glyph glyph-name="A" unicode="&#xc4;" horiz-adv-x="713" 
d="M764 729q16 7 43.5 -20t27.5 -52q-56 -72 -118 -219t-103 -306.5t-35 -253.5q0 -6 -4 -11t-10 -6q-50 -7 -88.5 21.5t-41.5 75.5q-4 74 60 250q-60 22 -131 37q-136 -190 -167 -336q-3 -14 -17 -13q-50 6 -80 43.5t-21 83.5q16 82 139 242q-126 7 -209 -24q-17 41 17 88
t104 58q68 10 174 -20q106 119 226 216t234 146zM521 278q56 139 122 257q-132 -108 -218 -211q52 -22 96 -46z" />
    <glyph glyph-name="A" unicode="&#xc3;" horiz-adv-x="713" 
d="M764 729q16 7 43.5 -20t27.5 -52q-56 -72 -118 -219t-103 -306.5t-35 -253.5q0 -6 -4 -11t-10 -6q-50 -7 -88.5 21.5t-41.5 75.5q-4 74 60 250q-60 22 -131 37q-136 -190 -167 -336q-3 -14 -17 -13q-50 6 -80 43.5t-21 83.5q16 82 139 242q-126 7 -209 -24q-17 41 17 88
t104 58q68 10 174 -20q106 119 226 216t234 146zM521 278q56 139 122 257q-132 -108 -218 -211q52 -22 96 -46z" />
    <glyph glyph-name="A" unicode="&#xc2;" horiz-adv-x="713" 
d="M764 729q16 7 43.5 -20t27.5 -52q-56 -72 -118 -219t-103 -306.5t-35 -253.5q0 -6 -4 -11t-10 -6q-50 -7 -88.5 21.5t-41.5 75.5q-4 74 60 250q-60 22 -131 37q-136 -190 -167 -336q-3 -14 -17 -13q-50 6 -80 43.5t-21 83.5q16 82 139 242q-126 7 -209 -24q-17 41 17 88
t104 58q68 10 174 -20q106 119 226 216t234 146zM521 278q56 139 122 257q-132 -108 -218 -211q52 -22 96 -46z" />
    <glyph glyph-name="A" unicode="&#xc1;" horiz-adv-x="713" 
d="M764 729q16 7 43.5 -20t27.5 -52q-56 -72 -118 -219t-103 -306.5t-35 -253.5q0 -6 -4 -11t-10 -6q-50 -7 -88.5 21.5t-41.5 75.5q-4 74 60 250q-60 22 -131 37q-136 -190 -167 -336q-3 -14 -17 -13q-50 6 -80 43.5t-21 83.5q16 82 139 242q-126 7 -209 -24q-17 41 17 88
t104 58q68 10 174 -20q106 119 226 216t234 146zM521 278q56 139 122 257q-132 -108 -218 -211q52 -22 96 -46z" />
    <glyph glyph-name="A" unicode="&#xc0;" horiz-adv-x="713" 
d="M764 729q16 7 43.5 -20t27.5 -52q-56 -72 -118 -219t-103 -306.5t-35 -253.5q0 -6 -4 -11t-10 -6q-50 -7 -88.5 21.5t-41.5 75.5q-4 74 60 250q-60 22 -131 37q-136 -190 -167 -336q-3 -14 -17 -13q-50 6 -80 43.5t-21 83.5q16 82 139 242q-126 7 -209 -24q-17 41 17 88
t104 58q68 10 174 -20q106 119 226 216t234 146zM521 278q56 139 122 257q-132 -108 -218 -211q52 -22 96 -46z" />
    <glyph glyph-name="B" unicode="B" horiz-adv-x="622" 
d="M466 753q59 -6 104 -32t69 -61t36 -75.5t10.5 -77.5t-13.5 -67q-19 -51 -61 -92t-86.5 -64.5t-97.5 -39.5q47 -23 79 -62t32 -93q0 -73 -41.5 -133t-108 -92.5t-141.5 -32.5q-36 0 -65.5 9t-47 24t-31.5 33.5t-18.5 38t-7 37.5t2.5 31q-1 3 -1 7q0 64 67.5 204t154 256
t133.5 116q19 0 35 -15.5t18 -42.5q0 -5 -4 -8q-18 -11 -65.5 -84.5t-93.5 -165.5q81 19 156.5 84t91.5 123q9 25 7.5 52t-11 50t-34.5 40t-63 23q-63 9 -128 -10t-115 -56t-85.5 -83.5t-45.5 -91.5q-4 -16 -19 -21t-27 6q-24 21 -35 61.5t-11 73.5q0 25 18 57.5t56.5 67.5
t90.5 62.5t130 40.5t166 3zM419 70q20 57 -16.5 104.5t-104.5 43.5q-61 -131 -81 -226q-2 -7 2.5 -12.5t11.5 -5.5q35 0 71 8.5t70.5 31.5t46.5 56z" />
    <glyph glyph-name="C" unicode="C" horiz-adv-x="680" 
d="M541 351q-33 0 -47 17t-14 40q123 104 123 170q0 6 -1.5 12.5t-5.5 11.5t-9 9t-13 6.5t-17 2.5q-47 0 -115.5 -50t-128.5 -121.5t-103 -158t-43 -152.5q0 -70 25.5 -110.5t87.5 -40.5q55 0 118.5 22.5t114.5 55t93.5 65.5t66.5 55l24 23q14 -3 14 -18q0 -18 -26.5 -57.5
t-75 -88.5t-107 -94t-132 -75t-140.5 -30q-107 0 -166.5 70t-59.5 187q0 102 50.5 214t128 200t177 145.5t191.5 57.5q22 0 43.5 -3.5t45.5 -14t41.5 -27.5t29.5 -46.5t12 -68.5q0 -86 -56 -147t-126 -61z" />
    <glyph glyph-name="C" unicode="&#xc7;" horiz-adv-x="680" 
d="M541 351q-33 0 -47 17t-14 40q123 104 123 170q0 6 -1.5 12.5t-5.5 11.5t-9 9t-13 6.5t-17 2.5q-47 0 -115.5 -50t-128.5 -121.5t-103 -158t-43 -152.5q0 -70 25.5 -110.5t87.5 -40.5q55 0 118.5 22.5t114.5 55t93.5 65.5t66.5 55l24 23q14 -3 14 -18q0 -18 -26.5 -57.5
t-75 -88.5t-107 -94t-132 -75t-140.5 -30q-107 0 -166.5 70t-59.5 187q0 102 50.5 214t128 200t177 145.5t191.5 57.5q22 0 43.5 -3.5t45.5 -14t41.5 -27.5t29.5 -46.5t12 -68.5q0 -86 -56 -147t-126 -61z" />
    <glyph glyph-name="D" unicode="D" horiz-adv-x="699" 
d="M745 211q1 -6 -2.5 -10.5t-8.5 -4.5q-62 -1 -136 -11q-32 -54 -70 -104.5t-84.5 -95t-95.5 -77.5t-104 -52t-108 -19q-59 0 -91.5 34t-32.5 87q0 77 84 141q-27 31 -27 70q0 44 58 144.5t130.5 185t106.5 84.5q22 0 42 -11t26 -30q3 -10 -5 -17q-35 -30 -121.5 -156
t-125.5 -221q124 59 308 88q81 144 71 273q-4 48 -28 79t-60 41.5t-77 8t-83 -16.5q-82 -29 -139 -77t-93 -136q-4 -11 -15 -14.5t-21 1.5q-30 17 -51 60.5t-21 77.5q0 27 31 64t82 72t126.5 59.5t154.5 24.5q161 0 240.5 -78t79.5 -219q0 -88 -53 -204q41 3 78 3
q27 0 35 -44zM172 -42q50 0 124.5 55.5t139.5 141.5q-110 -26 -190 -63.5t-104 -82.5q-11 -17 -1.5 -34t31.5 -17z" />
    <glyph glyph-name="E" unicode="E" horiz-adv-x="603" 
d="M530 745q48 0 88.5 -13.5t68.5 -39.5t36.5 -65.5t-7.5 -91.5q-14 -41 -54.5 -60t-76 -8.5t-35.5 42.5q7 2 14.5 8t13.5 14t10 17q2 5 3.5 12t0.5 15.5t-4.5 16t-12 14.5t-20.5 12q-15 4 -35 5.5t-44.5 -6.5t-46.5 -21t-41 -38t-28 -57q-14 -48 4.5 -91t46.5 -65
q13 0 19 -9h1v-1q8 -15 -2 -40t-20 -25q-180 11 -248 -116q-10 -19 -12 -46t5 -55t34 -47.5t70.5 -19.5t83 11t65.5 25.5t49 34.5t34 33t19 25q4 6 10.5 5t8.5 -7q2 -4 2 -8q0 -11 -4 -29t-14.5 -43.5t-25.5 -51.5t-41 -52.5t-58.5 -46.5t-79 -32.5t-101.5 -12.5
q-51 0 -97 20t-78 59t-35.5 95.5t29.5 129.5q80 165 282 198q-86 76 -54 210q15 63 61 109t102 66.5t114 20.5z" />
    <glyph glyph-name="E" unicode="&#xcb;" horiz-adv-x="603" 
d="M530 745q48 0 88.5 -13.5t68.5 -39.5t36.5 -65.5t-7.5 -91.5q-14 -41 -54.5 -60t-76 -8.5t-35.5 42.5q7 2 14.5 8t13.5 14t10 17q2 5 3.5 12t0.5 15.5t-4.5 16t-12 14.5t-20.5 12q-15 4 -35 5.5t-44.5 -6.5t-46.5 -21t-41 -38t-28 -57q-14 -48 4.5 -91t46.5 -65
q13 0 19 -9h1v-1q8 -15 -2 -40t-20 -25q-180 11 -248 -116q-10 -19 -12 -46t5 -55t34 -47.5t70.5 -19.5t83 11t65.5 25.5t49 34.5t34 33t19 25q4 6 10.5 5t8.5 -7q2 -4 2 -8q0 -11 -4 -29t-14.5 -43.5t-25.5 -51.5t-41 -52.5t-58.5 -46.5t-79 -32.5t-101.5 -12.5
q-51 0 -97 20t-78 59t-35.5 95.5t29.5 129.5q80 165 282 198q-86 76 -54 210q15 63 61 109t102 66.5t114 20.5z" />
    <glyph glyph-name="E" unicode="&#xca;" horiz-adv-x="603" 
d="M530 745q48 0 88.5 -13.5t68.5 -39.5t36.5 -65.5t-7.5 -91.5q-14 -41 -54.5 -60t-76 -8.5t-35.5 42.5q7 2 14.5 8t13.5 14t10 17q2 5 3.5 12t0.5 15.5t-4.5 16t-12 14.5t-20.5 12q-15 4 -35 5.5t-44.5 -6.5t-46.5 -21t-41 -38t-28 -57q-14 -48 4.5 -91t46.5 -65
q13 0 19 -9h1v-1q8 -15 -2 -40t-20 -25q-180 11 -248 -116q-10 -19 -12 -46t5 -55t34 -47.5t70.5 -19.5t83 11t65.5 25.5t49 34.5t34 33t19 25q4 6 10.5 5t8.5 -7q2 -4 2 -8q0 -11 -4 -29t-14.5 -43.5t-25.5 -51.5t-41 -52.5t-58.5 -46.5t-79 -32.5t-101.5 -12.5
q-51 0 -97 20t-78 59t-35.5 95.5t29.5 129.5q80 165 282 198q-86 76 -54 210q15 63 61 109t102 66.5t114 20.5z" />
    <glyph glyph-name="E" unicode="&#xc9;" horiz-adv-x="603" 
d="M530 745q48 0 88.5 -13.5t68.5 -39.5t36.5 -65.5t-7.5 -91.5q-14 -41 -54.5 -60t-76 -8.5t-35.5 42.5q7 2 14.5 8t13.5 14t10 17q2 5 3.5 12t0.5 15.5t-4.5 16t-12 14.5t-20.5 12q-15 4 -35 5.5t-44.5 -6.5t-46.5 -21t-41 -38t-28 -57q-14 -48 4.5 -91t46.5 -65
q13 0 19 -9h1v-1q8 -15 -2 -40t-20 -25q-180 11 -248 -116q-10 -19 -12 -46t5 -55t34 -47.5t70.5 -19.5t83 11t65.5 25.5t49 34.5t34 33t19 25q4 6 10.5 5t8.5 -7q2 -4 2 -8q0 -11 -4 -29t-14.5 -43.5t-25.5 -51.5t-41 -52.5t-58.5 -46.5t-79 -32.5t-101.5 -12.5
q-51 0 -97 20t-78 59t-35.5 95.5t29.5 129.5q80 165 282 198q-86 76 -54 210q15 63 61 109t102 66.5t114 20.5z" />
    <glyph glyph-name="E" unicode="&#xc8;" horiz-adv-x="603" 
d="M530 745q48 0 88.5 -13.5t68.5 -39.5t36.5 -65.5t-7.5 -91.5q-14 -41 -54.5 -60t-76 -8.5t-35.5 42.5q7 2 14.5 8t13.5 14t10 17q2 5 3.5 12t0.5 15.5t-4.5 16t-12 14.5t-20.5 12q-15 4 -35 5.5t-44.5 -6.5t-46.5 -21t-41 -38t-28 -57q-14 -48 4.5 -91t46.5 -65
q13 0 19 -9h1v-1q8 -15 -2 -40t-20 -25q-180 11 -248 -116q-10 -19 -12 -46t5 -55t34 -47.5t70.5 -19.5t83 11t65.5 25.5t49 34.5t34 33t19 25q4 6 10.5 5t8.5 -7q2 -4 2 -8q0 -11 -4 -29t-14.5 -43.5t-25.5 -51.5t-41 -52.5t-58.5 -46.5t-79 -32.5t-101.5 -12.5
q-51 0 -97 20t-78 59t-35.5 95.5t29.5 129.5q80 165 282 198q-86 76 -54 210q15 63 61 109t102 66.5t114 20.5z" />
    <glyph glyph-name="F" unicode="F" horiz-adv-x="623" 
d="M862 679q19 -12 23 -32.5t-1.5 -36t-14.5 -29.5q-3 -5 -11.5 -6t-11.5 1q-121 56 -385 37q9 -8 11 -25q1 -8 -6 -14q-15 -12 -51 -65.5t-78 -127.5q75 4 142.5 -5.5t95.5 -35.5q15 -18 9.5 -37t-19.5 -34t-20 -12q-48 23 -125.5 26t-140.5 -11q-134 -263 -142 -400
q-1 -14 -15 -15q-50 -4 -86.5 27t-36.5 77q0 37 26 105.5t67.5 148t89.5 157t98.5 141t87.5 92.5q-146 -18 -213 -46q-8 -3 -14 2t-3 14q12 36 47.5 72.5t94.5 54.5q50 14 167 20.5t242 -3.5t173 -40z" />
    <glyph glyph-name="G" unicode="G" horiz-adv-x="722" 
d="M404 236q21 14 69 16t96.5 -6t87 -25.5t41.5 -37.5q4 -24 -5 -36q-6 -8 -15 -4q-14 6 -48 9q-20 -44 -35.5 -101.5t-22.5 -119t12 -91.5q-35 -17 -71 -15.5t-47 20.5q-14 25 -4 102q-106 -95 -228 -95q-73 0 -126 33t-79.5 92.5t-26.5 138.5q0 70 24 146t64 145t95.5 132
t117 109t129.5 73.5t131 27.5q23 0 45 -3.5t46.5 -14.5t42.5 -28.5t30 -48t12 -70.5q0 -58 -27 -107.5t-69.5 -77.5t-89.5 -28q-33 0 -47.5 17.5t-14.5 40.5q126 108 126 175q0 18 -12 30.5t-35 12.5q-39 0 -93 -33t-106.5 -87.5t-98 -118t-74 -132.5t-28.5 -124
q0 -72 25.5 -113.5t89.5 -41.5q154 0 240 151q2 4 3 5q-89 -6 -137 -31q-7 -4 -13.5 -0.5t-6.5 11.5q-1 25 8.5 58.5t24.5 44.5z" />
    <glyph glyph-name="H" unicode="H" horiz-adv-x="747" 
d="M909 756q45 0 63.5 -21.5t13 -54.5t-24.5 -69.5t-47 -70.5q-120 -142 -248 -220q-68 -145 -94 -224q-8 -26 -14.5 -49.5t-11 -41.5t-7.5 -36t-4.5 -29.5t-3 -25t-1.5 -19v-16v-11.5q-1 -8 -6.5 -12.5t-12.5 -3.5q-21 2 -40 10.5t-35 24t-25.5 41t-9.5 58.5q0 88 74 255
q-58 -14 -117 -14q-24 0 -48 1q-97 -222 -105 -353q0 -8 -6 -13.5t-14 -5.5q-109 0 -109 121q0 88 82 268q-155 34 -155 123q0 47 14.5 66t32.5 22q7 1 13 -4q46 -39 167 -65q41 74 85.5 138.5t90 117t90.5 83t81 30.5q37 0 53 -19q7 -7 4.5 -17t-12.5 -14
q-42 -18 -110.5 -113.5t-136.5 -227.5q84 -5 168 13q42 75 87.5 141.5t94 120t96.5 85t88 31.5zM857 568q95 127 63 127q-58 0 -187 -242q73 47 124 115z" />
    <glyph glyph-name="I" unicode="I" horiz-adv-x="363" 
d="M534 659q-10 1 -53 -58t-100 -153.5t-111.5 -199.5t-92 -211t-37.5 -173q0 -4 -2 -7.5t-5.5 -5.5t-7.5 -3q-50 -4 -86.5 27t-36.5 77q0 48 38.5 142t98 197t124 198t124 157t89.5 62q13 0 20.5 -1.5t17.5 -5.5t15 -14.5t5 -27.5z" />
    <glyph glyph-name="I" unicode="&#xcf;" horiz-adv-x="363" 
d="M534 659q-10 1 -53 -58t-100 -153.5t-111.5 -199.5t-92 -211t-37.5 -173q0 -4 -2 -7.5t-5.5 -5.5t-7.5 -3q-50 -4 -86.5 27t-36.5 77q0 48 38.5 142t98 197t124 198t124 157t89.5 62q13 0 20.5 -1.5t17.5 -5.5t15 -14.5t5 -27.5z" />
    <glyph glyph-name="I" unicode="&#xce;" horiz-adv-x="363" 
d="M534 659q-10 1 -53 -58t-100 -153.5t-111.5 -199.5t-92 -211t-37.5 -173q0 -4 -2 -7.5t-5.5 -5.5t-7.5 -3q-50 -4 -86.5 27t-36.5 77q0 48 38.5 142t98 197t124 198t124 157t89.5 62q13 0 20.5 -1.5t17.5 -5.5t15 -14.5t5 -27.5z" />
    <glyph glyph-name="I" unicode="&#xcd;" horiz-adv-x="363" 
d="M534 659q-10 1 -53 -58t-100 -153.5t-111.5 -199.5t-92 -211t-37.5 -173q0 -4 -2 -7.5t-5.5 -5.5t-7.5 -3q-50 -4 -86.5 27t-36.5 77q0 48 38.5 142t98 197t124 198t124 157t89.5 62q13 0 20.5 -1.5t17.5 -5.5t15 -14.5t5 -27.5z" />
    <glyph glyph-name="I" unicode="&#xcc;" horiz-adv-x="363" 
d="M534 659q-10 1 -53 -58t-100 -153.5t-111.5 -199.5t-92 -211t-37.5 -173q0 -4 -2 -7.5t-5.5 -5.5t-7.5 -3q-50 -4 -86.5 27t-36.5 77q0 48 38.5 142t98 197t124 198t124 157t89.5 62q13 0 20.5 -1.5t17.5 -5.5t15 -14.5t5 -27.5z" />
    <glyph glyph-name="J" unicode="J" horiz-adv-x="706" 
d="M744 271q15 -12 8.5 -30t-25.5 -17q-42 0 -84 -2q-37 -76 -94.5 -149.5t-123.5 -131.5t-140.5 -92.5t-139.5 -31.5q-91 4 -132 51.5t-15 147.5q0 1 1 3q25 66 85.5 119.5t138 86t156.5 52t157 25.5q28 75 31 140q2 47 -13 86t-48 63.5t-78 25.5q-24 1 -47 -5t-42.5 -18.5
t-35.5 -30t-26.5 -40t-14.5 -47.5q-1 -9 -7 -15t-14 -7.5t-16 2.5q-41 19 -59 69t3 94q8 16 26 34.5t44.5 37t64 30.5t76.5 12q49 0 94.5 -11.5t87.5 -37t72.5 -63t47 -94t13.5 -125.5q-1 -47 -20 -103q13 -2 24 -5q27 -8 45 -23zM122 -113q28 -23 94.5 16t143 123
t130.5 180q-187 -34 -288 -123q-32 -29 -53 -59t-27.5 -53t-7.5 -42t2 -29.5t6 -12.5z" />
    <glyph glyph-name="K" unicode="K" horiz-adv-x="746" 
d="M817 714q33 -28 42.5 -71.5t-13.5 -101.5q-25 -56 -75.5 -106.5t-127 -87t-162.5 -43.5q-63 -6 -116 2q6 -34 18 -67.5t37.5 -73.5t60.5 -70.5t91.5 -52.5t125.5 -25q10 -1 15.5 -8t4.5 -16q-4 -22 -12.5 -43.5t-24 -43t-43 -34.5t-62.5 -13q-45 0 -85 17t-68 45.5
t-51 66t-36 79.5t-22.5 85t-9.5 82.5t3 71.5q0 7 2 13q-8 3 -15 6q-137 -278 -141 -434q-1 -10 -10 -11q-62 -9 -102.5 28t-40.5 98q0 63 60 191.5t138 251t156.5 215.5t113.5 93q17 0 27.5 -4t19 -17.5t10.5 -38.5q0 -6 -5 -10q-23 -14 -81.5 -104t-118.5 -206
q166 22 256 78q26 16 52 41.5t46 51.5t39 57t31 53t22 45q7 14 23 17.5t28 -6.5z" />
    <glyph glyph-name="L" unicode="L" horiz-adv-x="622" 
d="M728 -31q36 -21 39.5 -67.5t-26.5 -87.5q-7 -9 -17 -3q-46 24 -126.5 39t-166.5 19.5t-170 3.5t-145.5 -7t-84.5 -13q-15 -5 -25 8q-14 19 9 57q18 31 107 53q-29 24 -29 56q0 31 47.5 136.5t102.5 208.5q-28 14 -49 31t-34 37.5t-13 41.5q0 27 16.5 47t51.5 22
q10 1 13 -8q6 -16 23 -40.5t40 -46.5q4 7 8 12q44 64 84.5 111t87.5 86t98 59t106 20q30 0 52 -11.5t32 -29.5t14.5 -33.5t4.5 -28.5q0 -50 -28.5 -102.5t-78 -97t-126.5 -73.5t-164 -29q-10 -22 -18 -42q-82 -194 -109 -303q135 17 281 10t193 -35zM682 676
q-70 0 -139.5 -76.5t-131.5 -197.5h2h3q54 0 111 25.5t98.5 62.5t67.5 77.5t26 69.5q0 9 -2.5 16t-7.5 12t-12 8t-15 3z" />
    <glyph glyph-name="M" unicode="M" horiz-adv-x="819" 
d="M995 692q-13 -1 -68.5 -100t-117.5 -229.5t-110 -276t-47 -225.5q-39 -11 -71.5 -3t-54 34t-22.5 61q-1 63 61.5 214.5t147.5 300.5q-109 -110 -190.5 -208.5t-100.5 -153.5h-1q-61 -41 -89 36q-12 40 -8 123.5t20 179.5q-83 -168 -140.5 -330t-55.5 -254
q-57 -18 -102.5 10t-46.5 82q-1 28 12.5 77t37 108t55 126.5t66 133t72 126t71 107t64 75t51.5 31.5q10 2 20.5 1t20 -4t15.5 -13.5t6 -28.5v0q-9 -4 -28 -76t-36.5 -181t-19.5 -194q86 116 259 285t250 205q4 2 8 3q15 6 23 4q22 1 35 -8t14 -38z" />
    <glyph glyph-name="N" unicode="N" horiz-adv-x="730" 
d="M906 684q-13 -1 -68 -99.5t-117 -229.5t-110.5 -276.5t-46.5 -225.5q-57 -18 -102 10t-47 82q-1 45 34 142q-8 12 -14 29q-18 49 -31 182.5t-9 241.5q-58 -107 -112 -228t-96.5 -253t-40.5 -206q-40 -11 -72.5 -3t-54 34t-22.5 61q-1 55 50 185t120 260t143.5 232
t115.5 107q14 0 27.5 0.5t24 -10.5t10.5 -35v0q-4 -2 -7 -25t-4 -60t-0.5 -86t2.5 -100t7 -105.5t11 -100.5q52 119 117 235.5t129.5 199.5t100.5 87q10 2 21 1t20 -3.5t15 -13.5t6 -29z" />
    <glyph glyph-name="N" unicode="&#xd1;" horiz-adv-x="730" 
d="M906 684q-13 -1 -68 -99.5t-117 -229.5t-110.5 -276.5t-46.5 -225.5q-57 -18 -102 10t-47 82q-1 45 34 142q-8 12 -14 29q-18 49 -31 182.5t-9 241.5q-58 -107 -112 -228t-96.5 -253t-40.5 -206q-40 -11 -72.5 -3t-54 34t-22.5 61q-1 55 50 185t120 260t143.5 232
t115.5 107q14 0 27.5 0.5t24 -10.5t10.5 -35v0q-4 -2 -7 -25t-4 -60t-0.5 -86t2.5 -100t7 -105.5t11 -100.5q52 119 117 235.5t129.5 199.5t100.5 87q10 2 21 1t20 -3.5t15 -13.5t6 -29z" />
    <glyph glyph-name="O" unicode="O" horiz-adv-x="733" 
d="M39 283q20 53 50 100t63 80t70 59t70.5 37t65 15t54.5 -8q7 -3 7 -10.5t-7 -10.5q-52 -24 -119 -108.5t-103 -185.5q-12 -35 -21 -72t-13 -77t-1.5 -73t16.5 -57.5t39 -32.5q54 -16 115.5 30t113 130.5t84.5 187.5q25 81 24.5 143t-23 106t-54 68.5t-68.5 30.5
q-53 9 -105.5 -3t-89.5 -34t-72 -55t-53.5 -56t-33.5 -47q-5 -8 -15 -9t-17 6q-43 43 -43 107q0 60 53.5 115t153.5 83t243 -3q60 -13 109 -47t80.5 -81t50.5 -106.5t19 -124t-15 -132.5q-16 -65 -42.5 -122.5t-59 -100.5t-70.5 -78.5t-77.5 -57t-80 -36.5t-77 -16t-69.5 4
q-72 16 -122 78.5t-61 156t31 207.5z" />
    <glyph glyph-name="O" unicode="&#xd8;" horiz-adv-x="733" 
d="M39 283q20 53 50 100t63 80t70 59t70.5 37t65 15t54.5 -8q7 -3 7 -10.5t-7 -10.5q-52 -24 -119 -108.5t-103 -185.5q-12 -35 -21 -72t-13 -77t-1.5 -73t16.5 -57.5t39 -32.5q54 -16 115.5 30t113 130.5t84.5 187.5q25 81 24.5 143t-23 106t-54 68.5t-68.5 30.5
q-53 9 -105.5 -3t-89.5 -34t-72 -55t-53.5 -56t-33.5 -47q-5 -8 -15 -9t-17 6q-43 43 -43 107q0 60 53.5 115t153.5 83t243 -3q60 -13 109 -47t80.5 -81t50.5 -106.5t19 -124t-15 -132.5q-16 -65 -42.5 -122.5t-59 -100.5t-70.5 -78.5t-77.5 -57t-80 -36.5t-77 -16t-69.5 4
q-72 16 -122 78.5t-61 156t31 207.5z" />
    <glyph glyph-name="O" unicode="&#xd6;" horiz-adv-x="733" 
d="M39 283q20 53 50 100t63 80t70 59t70.5 37t65 15t54.5 -8q7 -3 7 -10.5t-7 -10.5q-52 -24 -119 -108.5t-103 -185.5q-12 -35 -21 -72t-13 -77t-1.5 -73t16.5 -57.5t39 -32.5q54 -16 115.5 30t113 130.5t84.5 187.5q25 81 24.5 143t-23 106t-54 68.5t-68.5 30.5
q-53 9 -105.5 -3t-89.5 -34t-72 -55t-53.5 -56t-33.5 -47q-5 -8 -15 -9t-17 6q-43 43 -43 107q0 60 53.5 115t153.5 83t243 -3q60 -13 109 -47t80.5 -81t50.5 -106.5t19 -124t-15 -132.5q-16 -65 -42.5 -122.5t-59 -100.5t-70.5 -78.5t-77.5 -57t-80 -36.5t-77 -16t-69.5 4
q-72 16 -122 78.5t-61 156t31 207.5z" />
    <glyph glyph-name="O" unicode="&#xd5;" horiz-adv-x="733" 
d="M39 283q20 53 50 100t63 80t70 59t70.5 37t65 15t54.5 -8q7 -3 7 -10.5t-7 -10.5q-52 -24 -119 -108.5t-103 -185.5q-12 -35 -21 -72t-13 -77t-1.5 -73t16.5 -57.5t39 -32.5q54 -16 115.5 30t113 130.5t84.5 187.5q25 81 24.5 143t-23 106t-54 68.5t-68.5 30.5
q-53 9 -105.5 -3t-89.5 -34t-72 -55t-53.5 -56t-33.5 -47q-5 -8 -15 -9t-17 6q-43 43 -43 107q0 60 53.5 115t153.5 83t243 -3q60 -13 109 -47t80.5 -81t50.5 -106.5t19 -124t-15 -132.5q-16 -65 -42.5 -122.5t-59 -100.5t-70.5 -78.5t-77.5 -57t-80 -36.5t-77 -16t-69.5 4
q-72 16 -122 78.5t-61 156t31 207.5z" />
    <glyph glyph-name="O" unicode="&#xd4;" horiz-adv-x="733" 
d="M39 283q20 53 50 100t63 80t70 59t70.5 37t65 15t54.5 -8q7 -3 7 -10.5t-7 -10.5q-52 -24 -119 -108.5t-103 -185.5q-12 -35 -21 -72t-13 -77t-1.5 -73t16.5 -57.5t39 -32.5q54 -16 115.5 30t113 130.5t84.5 187.5q25 81 24.5 143t-23 106t-54 68.5t-68.5 30.5
q-53 9 -105.5 -3t-89.5 -34t-72 -55t-53.5 -56t-33.5 -47q-5 -8 -15 -9t-17 6q-43 43 -43 107q0 60 53.5 115t153.5 83t243 -3q60 -13 109 -47t80.5 -81t50.5 -106.5t19 -124t-15 -132.5q-16 -65 -42.5 -122.5t-59 -100.5t-70.5 -78.5t-77.5 -57t-80 -36.5t-77 -16t-69.5 4
q-72 16 -122 78.5t-61 156t31 207.5z" />
    <glyph glyph-name="O" unicode="&#xd3;" horiz-adv-x="733" 
d="M39 283q20 53 50 100t63 80t70 59t70.5 37t65 15t54.5 -8q7 -3 7 -10.5t-7 -10.5q-52 -24 -119 -108.5t-103 -185.5q-12 -35 -21 -72t-13 -77t-1.5 -73t16.5 -57.5t39 -32.5q54 -16 115.5 30t113 130.5t84.5 187.5q25 81 24.5 143t-23 106t-54 68.5t-68.5 30.5
q-53 9 -105.5 -3t-89.5 -34t-72 -55t-53.5 -56t-33.5 -47q-5 -8 -15 -9t-17 6q-43 43 -43 107q0 60 53.5 115t153.5 83t243 -3q60 -13 109 -47t80.5 -81t50.5 -106.5t19 -124t-15 -132.5q-16 -65 -42.5 -122.5t-59 -100.5t-70.5 -78.5t-77.5 -57t-80 -36.5t-77 -16t-69.5 4
q-72 16 -122 78.5t-61 156t31 207.5z" />
    <glyph glyph-name="O" unicode="&#xd2;" horiz-adv-x="733" 
d="M39 283q20 53 50 100t63 80t70 59t70.5 37t65 15t54.5 -8q7 -3 7 -10.5t-7 -10.5q-52 -24 -119 -108.5t-103 -185.5q-12 -35 -21 -72t-13 -77t-1.5 -73t16.5 -57.5t39 -32.5q54 -16 115.5 30t113 130.5t84.5 187.5q25 81 24.5 143t-23 106t-54 68.5t-68.5 30.5
q-53 9 -105.5 -3t-89.5 -34t-72 -55t-53.5 -56t-33.5 -47q-5 -8 -15 -9t-17 6q-43 43 -43 107q0 60 53.5 115t153.5 83t243 -3q60 -13 109 -47t80.5 -81t50.5 -106.5t19 -124t-15 -132.5q-16 -65 -42.5 -122.5t-59 -100.5t-70.5 -78.5t-77.5 -57t-80 -36.5t-77 -16t-69.5 4
q-72 16 -122 78.5t-61 156t31 207.5z" />
    <glyph glyph-name="P" unicode="P" horiz-adv-x="673" 
d="M454 756q50 -5 92 -25t71 -48.5t49.5 -64.5t29.5 -74.5t7 -77.5t-15 -74q-27 -71 -66.5 -122t-82 -76t-86 -38t-82.5 -11t-67.5 8t-45.5 16q-85 -189 -88 -299q0 -7 -7 -9q-51 -7 -80 23t-29 81q0 52 41.5 156.5t98.5 205.5t120.5 177t102.5 76q55 0 58 -49q0 -6 -4 -9
q-14 -8 -44.5 -51t-71 -113t-75.5 -144q39 1 52 2q59 8 111 36q58 33 97.5 88t44.5 118q3 40 -8 75q-19 63 -74 98q-44 28 -121 18q-61 -8 -118 -39.5t-101 -78.5q-53 -58 -67 -117q-3 -15 -18 -20t-27 6q-23 21 -33.5 60t-10.5 72q0 23 17 54.5t54.5 65.5t88.5 61t126.5 40
t160.5 3z" />
    <glyph glyph-name="Q" unicode="Q" horiz-adv-x="811" 
d="M831 -96q0 -19 -4 -37.5t-14 -39t-31 -35t-50 -19.5q-45 -7 -89.5 9.5t-79.5 47.5t-66 75q-59 -36 -119 -48.5t-111 -1.5q-71 15 -121 78t-61 156t30 207q18 46 43 87.5t52.5 72.5t58 56.5t60.5 41t59.5 25.5t54.5 8.5t46 -8.5q7 -3 7 -10.5t-7 -10.5q-33 -15 -74 -56
t-82.5 -105.5t-65.5 -132.5q-15 -44 -25 -91t-12 -94.5t12 -82t45 -44.5q69 -21 151 61q-31 74 -34 129q-1 24 8.5 36.5t19.5 12.5h10q7 -45 51 -111q66 95 107 220q25 81 24.5 143t-23.5 106t-54.5 68.5t-67.5 30.5q-54 9 -106 -3t-89 -34t-72 -55t-53.5 -56t-33.5 -47
q-6 -8 -15.5 -9t-16.5 6q-43 43 -43 107q0 61 53.5 115.5t153.5 82.5t242 -3q60 -13 109 -47t81 -81t51 -106.5t18.5 -124t-15.5 -132.5q-41 -171 -152 -283q98 -71 221 -57q5 1 9.5 -1t7 -6.5t2.5 -9.5z" />
    <glyph glyph-name="R" unicode="R" horiz-adv-x="661" 
d="M688 412q-26 -74 -68 -127t-86 -79t-92.5 -38.5t-86 -11.5t-68.5 9q15 -29 34.5 -55.5t50 -54t64.5 -46.5t80.5 -28.5t96.5 -3.5q7 1 12.5 -4t5.5 -12q1 -18 -3 -36t-14 -37.5t-30 -33.5t-47 -18q-43 -8 -86 8t-76.5 46.5t-62.5 71.5t-48.5 83.5t-30.5 83.5
q-65 -155 -67 -249q0 -8 -8 -9q-33 -4 -58 8.5t-37.5 37t-12.5 57.5q0 53 41.5 156.5t98 204t120 176t101.5 75.5q55 0 58 -49q0 -5 -4 -8q-14 -9 -44 -51.5t-70.5 -112t-75.5 -143.5q39 1 52 2q59 8 110 36q38 21 68.5 52t50 71t23.5 82q3 39 -8 75q-20 62 -74 97
q-43 28 -120 18q-61 -8 -117.5 -39t-100.5 -79q-53 -58 -67 -116q-3 -15 -18 -20t-26 6q-23 21 -34 60t-11 71q0 23 17.5 54.5t54.5 65.5t87.5 60.5t126 39.5t160.5 3q58 -6 107 -30.5t79.5 -59.5t49.5 -78.5t18 -89.5t-15 -91z" />
    <glyph glyph-name="S" unicode="S" horiz-adv-x="603" 
d="M768 628q5 -17 -9 -27q-59 -39 -128.5 -139t-81.5 -175q-3 -12 -14 -17t-21 1q-11 7 -21 16t-19 20.5t-14 26.5t-5 32q0 23 28 73.5t70 108.5q8 79 -35 79q-22 0 -50 -16t-55.5 -44t-46 -75.5t-18.5 -102.5q0 -37 14 -72.5t34.5 -62.5t43.5 -58t40 -58t24 -63.5t-3 -74.5
q-23 -86 -89.5 -135.5t-141.5 -49.5q-101 0 -160.5 48.5t-59.5 124.5q0 62 28.5 93.5t68.5 42.5q14 4 24.5 -5.5t7.5 -23.5q-5 -23 -5 -43t6 -42.5t27 -36t55 -13.5q21 0 45 10.5t42.5 31t25.5 47.5t-7.5 64.5t-52.5 76.5q-110 112 -110 222q0 27 7.5 57t22 64.5t41 65.5
t60.5 56.5t83.5 40.5t107.5 15q34 0 61 -18.5t42 -48.5q44 48 60 48q24 0 47 -19.5t31 -44.5z" />
    <glyph glyph-name="T" unicode="T" horiz-adv-x="355" 
d="M777 742q33 -45 22.5 -97t-56.5 -73q-81 -38 -287 -23q-52 -83 -110.5 -201.5t-106.5 -258t-45 -219.5q-55 -13 -98.5 17t-45.5 81q-3 79 90.5 274.5t190.5 320.5q-98 15 -170 38.5t-95 52.5q-9 11 -12 23t4 26.5t27 23.5q4 -7 43 -15t98.5 -14.5t135.5 -8.5t150 1.5
t146 16.5t119 35z" />
    <glyph glyph-name="U" unicode="U" horiz-adv-x="665" 
d="M864 639q-11 -1 -53.5 -61.5t-97.5 -157.5t-106 -204.5t-81.5 -218t-21.5 -182.5q1 -10 -5.5 -18.5t-17.5 -10.5q-53 -6 -91.5 23.5t-39.5 79.5q-1 44 30 134q-27 -36 -54 -64.5t-58.5 -54.5t-60.5 -40t-61 -19t-60 8q-36 14 -58.5 50t-25.5 90t22 122q9 25 29.5 68.5
t42 88t45.5 94.5t42.5 94.5t30.5 82.5t11.5 62.5t-16.5 30.5q-18 8 -44.5 -6t-56 -46t-60 -90t-53.5 -131q-3 0 -8 1t-18 6.5t-24 13t-21.5 22.5t-14.5 33.5t1 47t21 62.5q21 45 54 77t71 49.5t75.5 25t76.5 7.5q59 0 95.5 -25t47 -65.5t4.5 -88.5t-28 -97q-13 -31 -35 -74
t-42.5 -81.5t-42.5 -81t-37.5 -78.5t-25 -69t-8.5 -57.5t15 -38.5q23 -22 84 23.5t137 139t142 203.5q81 151 160 257t124 111q15 0 29.5 0.5t25.5 -11t11 -36.5z" />
    <glyph glyph-name="U" unicode="&#xdc;" horiz-adv-x="665" 
d="M864 639q-11 -1 -53.5 -61.5t-97.5 -157.5t-106 -204.5t-81.5 -218t-21.5 -182.5q1 -10 -5.5 -18.5t-17.5 -10.5q-53 -6 -91.5 23.5t-39.5 79.5q-1 44 30 134q-27 -36 -54 -64.5t-58.5 -54.5t-60.5 -40t-61 -19t-60 8q-36 14 -58.5 50t-25.5 90t22 122q9 25 29.5 68.5
t42 88t45.5 94.5t42.5 94.5t30.5 82.5t11.5 62.5t-16.5 30.5q-18 8 -44.5 -6t-56 -46t-60 -90t-53.5 -131q-3 0 -8 1t-18 6.5t-24 13t-21.5 22.5t-14.5 33.5t1 47t21 62.5q21 45 54 77t71 49.5t75.5 25t76.5 7.5q59 0 95.5 -25t47 -65.5t4.5 -88.5t-28 -97q-13 -31 -35 -74
t-42.5 -81.5t-42.5 -81t-37.5 -78.5t-25 -69t-8.5 -57.5t15 -38.5q23 -22 84 23.5t137 139t142 203.5q81 151 160 257t124 111q15 0 29.5 0.5t25.5 -11t11 -36.5z" />
    <glyph glyph-name="U" unicode="&#xdb;" horiz-adv-x="665" 
d="M864 639q-11 -1 -53.5 -61.5t-97.5 -157.5t-106 -204.5t-81.5 -218t-21.5 -182.5q1 -10 -5.5 -18.5t-17.5 -10.5q-53 -6 -91.5 23.5t-39.5 79.5q-1 44 30 134q-27 -36 -54 -64.5t-58.5 -54.5t-60.5 -40t-61 -19t-60 8q-36 14 -58.5 50t-25.5 90t22 122q9 25 29.5 68.5
t42 88t45.5 94.5t42.5 94.5t30.5 82.5t11.5 62.5t-16.5 30.5q-18 8 -44.5 -6t-56 -46t-60 -90t-53.5 -131q-3 0 -8 1t-18 6.5t-24 13t-21.5 22.5t-14.5 33.5t1 47t21 62.5q21 45 54 77t71 49.5t75.5 25t76.5 7.5q59 0 95.5 -25t47 -65.5t4.5 -88.5t-28 -97q-13 -31 -35 -74
t-42.5 -81.5t-42.5 -81t-37.5 -78.5t-25 -69t-8.5 -57.5t15 -38.5q23 -22 84 23.5t137 139t142 203.5q81 151 160 257t124 111q15 0 29.5 0.5t25.5 -11t11 -36.5z" />
    <glyph glyph-name="U" unicode="&#xda;" horiz-adv-x="665" 
d="M864 639q-11 -1 -53.5 -61.5t-97.5 -157.5t-106 -204.5t-81.5 -218t-21.5 -182.5q1 -10 -5.5 -18.5t-17.5 -10.5q-53 -6 -91.5 23.5t-39.5 79.5q-1 44 30 134q-27 -36 -54 -64.5t-58.5 -54.5t-60.5 -40t-61 -19t-60 8q-36 14 -58.5 50t-25.5 90t22 122q9 25 29.5 68.5
t42 88t45.5 94.5t42.5 94.5t30.5 82.5t11.5 62.5t-16.5 30.5q-18 8 -44.5 -6t-56 -46t-60 -90t-53.5 -131q-3 0 -8 1t-18 6.5t-24 13t-21.5 22.5t-14.5 33.5t1 47t21 62.5q21 45 54 77t71 49.5t75.5 25t76.5 7.5q59 0 95.5 -25t47 -65.5t4.5 -88.5t-28 -97q-13 -31 -35 -74
t-42.5 -81.5t-42.5 -81t-37.5 -78.5t-25 -69t-8.5 -57.5t15 -38.5q23 -22 84 23.5t137 139t142 203.5q81 151 160 257t124 111q15 0 29.5 0.5t25.5 -11t11 -36.5z" />
    <glyph glyph-name="U" unicode="&#xd9;" horiz-adv-x="665" 
d="M864 639q-11 -1 -53.5 -61.5t-97.5 -157.5t-106 -204.5t-81.5 -218t-21.5 -182.5q1 -10 -5.5 -18.5t-17.5 -10.5q-53 -6 -91.5 23.5t-39.5 79.5q-1 44 30 134q-27 -36 -54 -64.5t-58.5 -54.5t-60.5 -40t-61 -19t-60 8q-36 14 -58.5 50t-25.5 90t22 122q9 25 29.5 68.5
t42 88t45.5 94.5t42.5 94.5t30.5 82.5t11.5 62.5t-16.5 30.5q-18 8 -44.5 -6t-56 -46t-60 -90t-53.5 -131q-3 0 -8 1t-18 6.5t-24 13t-21.5 22.5t-14.5 33.5t1 47t21 62.5q21 45 54 77t71 49.5t75.5 25t76.5 7.5q59 0 95.5 -25t47 -65.5t4.5 -88.5t-28 -97q-13 -31 -35 -74
t-42.5 -81.5t-42.5 -81t-37.5 -78.5t-25 -69t-8.5 -57.5t15 -38.5q23 -22 84 23.5t137 139t142 203.5q81 151 160 257t124 111q15 0 29.5 0.5t25.5 -11t11 -36.5z" />
    <glyph glyph-name="V" unicode="V" horiz-adv-x="746" 
d="M376 580q-42 -27 -103.5 -163t-104 -277.5t-42.5 -196.5q0 -33 21 -33q33 0 115 84.5t170 203t164 261.5t94 245q2 9 9.5 15.5t17.5 6.5q38 1 64.5 -43t26.5 -131q0 -51 -32 -128.5t-84 -160t-119.5 -166t-135.5 -149.5t-136 -107t-117 -41h-11h-27t-26.5 1.5t-27.5 5
t-24.5 11t-23.5 17.5t-19 26t-15.5 36.5t-9.5 49t-4 62.5q0 92 32.5 214t77 222t90.5 169.5t73 69.5q38 0 62 -6.5t38.5 -23t19.5 -44.5q3 -19 -13 -30z" />
    <glyph glyph-name="W" unicode="W" horiz-adv-x="1105" 
d="M951 737q29 0 60 -11t59 -31t45.5 -53t17.5 -73q0 -53 -13 -120.5t-37.5 -139t-58 -142.5t-76.5 -134t-89 -111.5t-100 -76.5t-107 -28q-45 0 -80 11.5t-61.5 37.5t-40 70.5t-13.5 107.5v21q-72 -106 -144.5 -177t-127.5 -71q-83 0 -128.5 56t-45.5 133q0 86 19 174
t49.5 160t65 136t71 112.5t62 78.5t41.5 45q44 38 115 5q44 -20 54 -44q4 -8 -1 -13q-115 -130 -220 -344q-107 -217 -102 -315q3 -52 43 -52q49 0 136.5 106t189.5 277q50 99 93 138q44 38 103 5q36 -20 42 -44q2 -8 -3 -13q-74 -76 -123 -200.5t-49 -208.5q0 -23 7.5 -39
t19.5 -22t20 -8t15 -2q33 0 65.5 22.5t59.5 61t52 88.5t44.5 104.5t35.5 109.5t26.5 104t16 86.5t5.5 58.5q0 35 -12 73.5t-34 38.5q-16 0 -19 17q-5 23 23 32q12 3 26 3h1.5h1.5z" />
    <glyph glyph-name="X" unicode="X" horiz-adv-x="571" 
d="M886 636q4 -10 -1.5 -20t-15.5 -8q-61 14 -153 -29t-187 -123.5t-169 -177.5q13 -51 22 -86t24 -81t29 -77t34 -65t41.5 -54.5t49.5 -35.5t60 -18q19 -1 35 4q8 3 16 0t12.5 -10.5t2.5 -16.5q-6 -35 -39 -68.5t-85 -51t-117 2.5q-30 9 -56 38t-44 64.5t-35.5 91
t-28.5 101.5t-26 114q-29 -44 -46.5 -69t-44.5 -60t-47.5 -54.5t-45.5 -39.5t-50 -28.5t-50 -8.5q-35 0 -63 14.5t-41 41.5q-8 17 0 33.5t26 20.5q79 19 144.5 74.5t189.5 210.5q-13 63 -25 108t-29.5 91t-37 72t-46 38.5t-58.5 4.5q-10 -3 -17.5 5t-4.5 18q6 18 25.5 36
t50 29.5t61.5 11.5q29 0 53.5 -15.5t43 -40t35.5 -63.5t28.5 -77t25.5 -90q119 135 244.5 220.5t206.5 85.5q30 0 60.5 -18t42.5 -45z" />
    <glyph glyph-name="Y" unicode="Y" horiz-adv-x="753" 
d="M886 708q34 0 61.5 -15t27.5 -38q-20 -7 -39 -21t-37.5 -37.5t-34 -45t-33.5 -58t-30.5 -62t-31.5 -70.5t-29 -70.5t-29 -74.5q-9 -23 -13 -34q-19 -46 -31.5 -77t-30.5 -69.5t-33 -63.5t-35.5 -54t-41 -47t-47.5 -36.5t-56 -28t-65 -15.5t-77 -6q-87 0 -141 44t-54 96
q0 42 24.5 71.5t66.5 30.5q0 -58 35.5 -84.5t98.5 -26.5q65 0 109 38t84 114q-94 -76 -195 -37q-29 11 -54.5 32t-46 53.5t-25 74t8.5 93.5q8 26 23 61t31 67.5t33 66.5t29.5 63t19 53.5t2.5 41.5t-20 23q-19 8 -48.5 -7.5t-61 -49t-61 -94t-45.5 -134.5q-3 1 -8 2t-19 6.5
t-25.5 13t-23.5 23t-17.5 34t-3.5 47.5t16 64q17 45 47.5 78t68 50.5t74.5 25t76 7.5q63 0 111 -32t64.5 -83.5t-3.5 -117.5q-15 -42 -39 -94t-40.5 -86.5t-29.5 -70.5t-9.5 -63t24.5 -46q20 -18 46.5 -20t59 13.5t72 62.5t79.5 121q2 4 6 14q17 39 26 58.5t25 55.5t26 55.5
t25.5 49.5t26.5 46.5t25.5 38.5t27.5 34t27 24t28.5 17t28.5 5z" />
    <glyph glyph-name="Y" unicode="&#xdd;" horiz-adv-x="753" 
d="M886 708q34 0 61.5 -15t27.5 -38q-20 -7 -39 -21t-37.5 -37.5t-34 -45t-33.5 -58t-30.5 -62t-31.5 -70.5t-29 -70.5t-29 -74.5q-9 -23 -13 -34q-19 -46 -31.5 -77t-30.5 -69.5t-33 -63.5t-35.5 -54t-41 -47t-47.5 -36.5t-56 -28t-65 -15.5t-77 -6q-87 0 -141 44t-54 96
q0 42 24.5 71.5t66.5 30.5q0 -58 35.5 -84.5t98.5 -26.5q65 0 109 38t84 114q-94 -76 -195 -37q-29 11 -54.5 32t-46 53.5t-25 74t8.5 93.5q8 26 23 61t31 67.5t33 66.5t29.5 63t19 53.5t2.5 41.5t-20 23q-19 8 -48.5 -7.5t-61 -49t-61 -94t-45.5 -134.5q-3 1 -8 2t-19 6.5
t-25.5 13t-23.5 23t-17.5 34t-3.5 47.5t16 64q17 45 47.5 78t68 50.5t74.5 25t76 7.5q63 0 111 -32t64.5 -83.5t-3.5 -117.5q-15 -42 -39 -94t-40.5 -86.5t-29.5 -70.5t-9.5 -63t24.5 -46q20 -18 46.5 -20t59 13.5t72 62.5t79.5 121q2 4 6 14q17 39 26 58.5t25 55.5t26 55.5
t25.5 49.5t26.5 46.5t25.5 38.5t27.5 34t27 24t28.5 17t28.5 5z" />
    <glyph glyph-name="Z" unicode="Z" horiz-adv-x="815" 
d="M941 664q15 -8 19.5 -44.5t0.5 -80.5q-76 -17 -319 -198.5t-424 -350.5q89 25 190.5 40.5t175.5 15.5q63 0 98.5 -11t46 -27.5t10.5 -43.5q0 -21 -16 -51t-43 -53.5t-53 -23.5q-55 44 -156 55t-209.5 -8t-196.5 -61q0 -1 -1 0q-12 2 -26 21t-21 54.5t11 83.5
q9 24 123.5 125.5t276 228t289.5 213.5q-74 2 -169 -9q-198 -21 -246 -79q-8 -10 -20.5 -10.5t-19.5 8.5q-20 22 -24 64.5t9 81t37 51.5q35 18 110.5 30t166.5 15.5t193 -5.5t182 -30q3 0 5 -1v0z" />
    <glyph glyph-name="underscore" unicode="_" horiz-adv-x="718" 
d="M636 74q19 -13 27 -37.5t5 -46t-12 -31.5q-6 -8 -16 -4q-47 16 -248 20.5t-313 -14.5q-28 0 -29 37q-1 41 30 70q18 17 42 19q88 6 188 9t202 -1.5t124 -20.5z" />
    <glyph glyph-name="a" unicode="a" horiz-adv-x="513" 
d="M515 226q17 0 17 -21q0 -28 -34 -76t-85.5 -86.5t-93 -38.5t-67 28.5t-29.5 72.5q-15 -19 -32.5 -35.5t-41.5 -33t-47 -25.5t-48.5 -7t-46.5 19q-31 24 -37.5 66.5t6.5 86.5t34 84t45 65q36 39 84.5 66.5t94.5 27.5q68 0 87 -52q43 57 72 57q37 0 55 -20.5t18 -36.5
q0 -6 -27 -44t-53.5 -85.5t-26.5 -75.5q0 -12 6.5 -22.5t21.5 -10.5q19 0 42.5 15.5t40.5 33.5t30 33t15 15zM122 153q40 0 91.5 57.5t51.5 100.5q0 35 -28 35q-39 0 -92.5 -53.5t-53.5 -103.5q0 -17 9 -26.5t22 -9.5z" />
    <glyph glyph-name="a" unicode="&#xe5;" horiz-adv-x="513" 
d="M515 226q17 0 17 -21q0 -28 -34 -76t-85.5 -86.5t-93 -38.5t-67 28.5t-29.5 72.5q-15 -19 -32.5 -35.5t-41.5 -33t-47 -25.5t-48.5 -7t-46.5 19q-31 24 -37.5 66.5t6.5 86.5t34 84t45 65q36 39 84.5 66.5t94.5 27.5q68 0 87 -52q43 57 72 57q37 0 55 -20.5t18 -36.5
q0 -6 -27 -44t-53.5 -85.5t-26.5 -75.5q0 -12 6.5 -22.5t21.5 -10.5q19 0 42.5 15.5t40.5 33.5t30 33t15 15zM122 153q40 0 91.5 57.5t51.5 100.5q0 35 -28 35q-39 0 -92.5 -53.5t-53.5 -103.5q0 -17 9 -26.5t22 -9.5z" />
    <glyph glyph-name="a" unicode="&#xe4;" horiz-adv-x="513" 
d="M515 226q17 0 17 -21q0 -28 -34 -76t-85.5 -86.5t-93 -38.5t-67 28.5t-29.5 72.5q-15 -19 -32.5 -35.5t-41.5 -33t-47 -25.5t-48.5 -7t-46.5 19q-31 24 -37.5 66.5t6.5 86.5t34 84t45 65q36 39 84.5 66.5t94.5 27.5q68 0 87 -52q43 57 72 57q37 0 55 -20.5t18 -36.5
q0 -6 -27 -44t-53.5 -85.5t-26.5 -75.5q0 -12 6.5 -22.5t21.5 -10.5q19 0 42.5 15.5t40.5 33.5t30 33t15 15zM122 153q40 0 91.5 57.5t51.5 100.5q0 35 -28 35q-39 0 -92.5 -53.5t-53.5 -103.5q0 -17 9 -26.5t22 -9.5z" />
    <glyph glyph-name="a" unicode="&#xe3;" horiz-adv-x="513" 
d="M515 226q17 0 17 -21q0 -28 -34 -76t-85.5 -86.5t-93 -38.5t-67 28.5t-29.5 72.5q-15 -19 -32.5 -35.5t-41.5 -33t-47 -25.5t-48.5 -7t-46.5 19q-31 24 -37.5 66.5t6.5 86.5t34 84t45 65q36 39 84.5 66.5t94.5 27.5q68 0 87 -52q43 57 72 57q37 0 55 -20.5t18 -36.5
q0 -6 -27 -44t-53.5 -85.5t-26.5 -75.5q0 -12 6.5 -22.5t21.5 -10.5q19 0 42.5 15.5t40.5 33.5t30 33t15 15zM122 153q40 0 91.5 57.5t51.5 100.5q0 35 -28 35q-39 0 -92.5 -53.5t-53.5 -103.5q0 -17 9 -26.5t22 -9.5z" />
    <glyph glyph-name="a" unicode="&#xe2;" horiz-adv-x="513" 
d="M515 226q17 0 17 -21q0 -28 -34 -76t-85.5 -86.5t-93 -38.5t-67 28.5t-29.5 72.5q-15 -19 -32.5 -35.5t-41.5 -33t-47 -25.5t-48.5 -7t-46.5 19q-31 24 -37.5 66.5t6.5 86.5t34 84t45 65q36 39 84.5 66.5t94.5 27.5q68 0 87 -52q43 57 72 57q37 0 55 -20.5t18 -36.5
q0 -6 -27 -44t-53.5 -85.5t-26.5 -75.5q0 -12 6.5 -22.5t21.5 -10.5q19 0 42.5 15.5t40.5 33.5t30 33t15 15zM122 153q40 0 91.5 57.5t51.5 100.5q0 35 -28 35q-39 0 -92.5 -53.5t-53.5 -103.5q0 -17 9 -26.5t22 -9.5z" />
    <glyph glyph-name="a" unicode="&#xe1;" horiz-adv-x="513" 
d="M515 226q17 0 17 -21q0 -28 -34 -76t-85.5 -86.5t-93 -38.5t-67 28.5t-29.5 72.5q-15 -19 -32.5 -35.5t-41.5 -33t-47 -25.5t-48.5 -7t-46.5 19q-31 24 -37.5 66.5t6.5 86.5t34 84t45 65q36 39 84.5 66.5t94.5 27.5q68 0 87 -52q43 57 72 57q37 0 55 -20.5t18 -36.5
q0 -6 -27 -44t-53.5 -85.5t-26.5 -75.5q0 -12 6.5 -22.5t21.5 -10.5q19 0 42.5 15.5t40.5 33.5t30 33t15 15zM122 153q40 0 91.5 57.5t51.5 100.5q0 35 -28 35q-39 0 -92.5 -53.5t-53.5 -103.5q0 -17 9 -26.5t22 -9.5z" />
    <glyph glyph-name="a" unicode="&#xe0;" horiz-adv-x="513" 
d="M515 226q17 0 17 -21q0 -28 -34 -76t-85.5 -86.5t-93 -38.5t-67 28.5t-29.5 72.5q-15 -19 -32.5 -35.5t-41.5 -33t-47 -25.5t-48.5 -7t-46.5 19q-31 24 -37.5 66.5t6.5 86.5t34 84t45 65q36 39 84.5 66.5t94.5 27.5q68 0 87 -52q43 57 72 57q37 0 55 -20.5t18 -36.5
q0 -6 -27 -44t-53.5 -85.5t-26.5 -75.5q0 -12 6.5 -22.5t21.5 -10.5q19 0 42.5 15.5t40.5 33.5t30 33t15 15zM122 153q40 0 91.5 57.5t51.5 100.5q0 35 -28 35q-39 0 -92.5 -53.5t-53.5 -103.5q0 -17 9 -26.5t22 -9.5z" />
    <glyph glyph-name="b" unicode="b" horiz-adv-x="428" 
d="M305 413q49 0 77 -28.5t28 -78.5q0 -57 -40 -130.5t-100 -126t-111 -52.5q-78 0 -104 81q-12 -47 -13 -83q0 -6 -6 -7q-43 -6 -75.5 19.5t-32.5 64.5q0 43 37 129.5t86.5 170t104.5 147t86 63.5q17 0 31 -13.5t16 -37.5q0 -4 -3 -7q-8 -5 -24.5 -26.5t-39 -57
t-45.5 -76.5q68 49 128 49zM138 147q33 0 72 32.5t63 71t24 59.5q0 28 -29 28q-35 0 -76 -32t-70 -79q-5 -8 -9.5 -20t-7 -26.5t5.5 -24t27 -9.5z" />
    <glyph glyph-name="c" unicode="c" horiz-adv-x="362" 
d="M362 231q15 0 18 -23.5t-9 -40.5q-18 -27 -41.5 -52.5t-57 -52t-76.5 -43t-88 -16.5q-12 0 -25.5 2.5t-33 10.5t-34.5 21.5t-25.5 39t-10.5 58.5q0 44 21 94.5t55.5 94t84 72.5t99.5 29q35 0 60 -9.5t37 -23.5t17 -25.5t5 -20.5q0 -57 -52 -74q-37 -13 -59 2q-8 5 -8 12
q17 17 19.5 41t-13.5 28q-22 5 -61 -24.5t-61 -73.5q-21 -48 -13.5 -80t33.5 -41q16 -6 33 -7.5t31 0t29 6.5t26.5 10.5t24.5 15t21.5 16t19 17t15 15.5t12 13.5z" />
    <glyph glyph-name="c" unicode="&#xe7;" horiz-adv-x="362" 
d="M362 231q15 0 18 -23.5t-9 -40.5q-18 -27 -41.5 -52.5t-57 -52t-76.5 -43t-88 -16.5q-12 0 -25.5 2.5t-33 10.5t-34.5 21.5t-25.5 39t-10.5 58.5q0 44 21 94.5t55.5 94t84 72.5t99.5 29q35 0 60 -9.5t37 -23.5t17 -25.5t5 -20.5q0 -57 -52 -74q-37 -13 -59 2q-8 5 -8 12
q17 17 19.5 41t-13.5 28q-22 5 -61 -24.5t-61 -73.5q-21 -48 -13.5 -80t33.5 -41q16 -6 33 -7.5t31 0t29 6.5t26.5 10.5t24.5 15t21.5 16t19 17t15 15.5t12 13.5z" />
    <glyph glyph-name="d" unicode="d" horiz-adv-x="551" 
d="M548 226q7 0 17 -17.5t3 -27.5q-118 -177 -205 -177q-40 0 -68 16t-40 41.5t-12 58.5v5q-15 -21 -35.5 -42t-49 -42t-55.5 -32t-55.5 -5.5t-48.5 30.5q-44 56 -9 171q20 67 68 118q36 40 84.5 67.5t94.5 27.5q77 0 91 -63q56 91 122.5 162t93.5 71q20 0 33.5 -6t18.5 -16
t7 -16.5t2 -13.5q-9 -8 -40.5 -50.5t-71.5 -101.5t-70.5 -122.5t-30.5 -99.5q0 -12 6.5 -22.5t21.5 -10.5q14 0 29 7t28 18t26 23.5t22 23.5t15.5 18t7.5 7zM139 152q40 0 92 57.5t52 100.5q0 35 -28 35q-39 0 -92.5 -53.5t-53.5 -102.5q0 -12 4 -20.5t11 -12.5t15 -4z" />
    <glyph glyph-name="e" unicode="e" horiz-adv-x="351" 
d="M354 224q5 0 8.5 -15t1 -34.5t-11.5 -31.5q-27 -34 -60.5 -64t-86 -55.5t-105.5 -25.5q-12 0 -25.5 2.5t-33 10.5t-34.5 21.5t-25.5 39t-10.5 58.5q0 44 21 95t55.5 94t84 72t99.5 29q35 0 60 -9.5t37 -23.5t17 -25.5t5 -20.5q0 -44 -28 -77.5t-66.5 -49t-78.5 -15.5
q-49 0 -73 26q-10 -35 0 -60.5t31 -33.5q110 -39 219 93zM115 252q0 -1 -1 -3q62 4 99.5 30t37.5 48q0 20 -14 23q-22 6 -61 -24t-61 -74z" />
    <glyph glyph-name="e" unicode="&#xeb;" horiz-adv-x="351" 
d="M354 224q5 0 8.5 -15t1 -34.5t-11.5 -31.5q-27 -34 -60.5 -64t-86 -55.5t-105.5 -25.5q-12 0 -25.5 2.5t-33 10.5t-34.5 21.5t-25.5 39t-10.5 58.5q0 44 21 95t55.5 94t84 72t99.5 29q35 0 60 -9.5t37 -23.5t17 -25.5t5 -20.5q0 -44 -28 -77.5t-66.5 -49t-78.5 -15.5
q-49 0 -73 26q-10 -35 0 -60.5t31 -33.5q110 -39 219 93zM115 252q0 -1 -1 -3q62 4 99.5 30t37.5 48q0 20 -14 23q-22 6 -61 -24t-61 -74z" />
    <glyph glyph-name="e" unicode="&#xea;" horiz-adv-x="351" 
d="M354 224q5 0 8.5 -15t1 -34.5t-11.5 -31.5q-27 -34 -60.5 -64t-86 -55.5t-105.5 -25.5q-12 0 -25.5 2.5t-33 10.5t-34.5 21.5t-25.5 39t-10.5 58.5q0 44 21 95t55.5 94t84 72t99.5 29q35 0 60 -9.5t37 -23.5t17 -25.5t5 -20.5q0 -44 -28 -77.5t-66.5 -49t-78.5 -15.5
q-49 0 -73 26q-10 -35 0 -60.5t31 -33.5q110 -39 219 93zM115 252q0 -1 -1 -3q62 4 99.5 30t37.5 48q0 20 -14 23q-22 6 -61 -24t-61 -74z" />
    <glyph glyph-name="e" unicode="&#xe9;" horiz-adv-x="351" 
d="M354 224q5 0 8.5 -15t1 -34.5t-11.5 -31.5q-27 -34 -60.5 -64t-86 -55.5t-105.5 -25.5q-12 0 -25.5 2.5t-33 10.5t-34.5 21.5t-25.5 39t-10.5 58.5q0 44 21 95t55.5 94t84 72t99.5 29q35 0 60 -9.5t37 -23.5t17 -25.5t5 -20.5q0 -44 -28 -77.5t-66.5 -49t-78.5 -15.5
q-49 0 -73 26q-10 -35 0 -60.5t31 -33.5q110 -39 219 93zM115 252q0 -1 -1 -3q62 4 99.5 30t37.5 48q0 20 -14 23q-22 6 -61 -24t-61 -74z" />
    <glyph glyph-name="e" unicode="&#xe8;" horiz-adv-x="351" 
d="M354 224q5 0 8.5 -15t1 -34.5t-11.5 -31.5q-27 -34 -60.5 -64t-86 -55.5t-105.5 -25.5q-12 0 -25.5 2.5t-33 10.5t-34.5 21.5t-25.5 39t-10.5 58.5q0 44 21 95t55.5 94t84 72t99.5 29q35 0 60 -9.5t37 -23.5t17 -25.5t5 -20.5q0 -44 -28 -77.5t-66.5 -49t-78.5 -15.5
q-49 0 -73 26q-10 -35 0 -60.5t31 -33.5q110 -39 219 93zM115 252q0 -1 -1 -3q62 4 99.5 30t37.5 48q0 20 -14 23q-22 6 -61 -24t-61 -74z" />
    <glyph glyph-name="f" unicode="f" horiz-adv-x="275" 
d="M234 568q73 0 79 -62q0 -8 -7 -9q-33 -8 -82.5 -79t-88.5 -166q26 -19 47 -87q58 16 88 55q11 0 20.5 -6.5t12 -16t-4.5 -19.5q-46 -65 -99 -94q2 -12 2 -20q0 -49 -8.5 -94.5t-25.5 -85.5t-47 -64.5t-69 -24.5q-53 0 -80 62.5t-22.5 161t39.5 203.5q46 137 122 241.5
t124 104.5zM107 178q-3 -7 -5 -15q7 -2 14 -3q-5 9 -9 18zM137 62q-16 -3 -32 -3q-15 0 -29 2q-6 -24 -10.5 -48t-8.5 -47.5t-6 -43t-2 -34.5t2.5 -23.5t8.5 -8.5q33 0 54 65.5t23 140.5z" />
    <glyph glyph-name="g" unicode="g" horiz-adv-x="437" 
d="M479 376q4 -12 -6 -19q-20 -14 -53 -75t-63 -142q-17 -46 -31.5 -81t-35.5 -78.5t-43 -74t-48.5 -58t-58 -41.5t-66.5 -14q-75 0 -94 60q-15 45 10 84q15 24 38 24q0 -10 17.5 -15.5t33.5 -5.5q42 0 75 41t64 114q-82 -91 -163 -91q-29 0 -54.5 28.5t-25.5 71.5
q0 64 20.5 119t51.5 90t68 59.5t68 35.5t54 11q26 0 45.5 -8.5t31 -23.5t15.5 -37q45 69 88 69q48 0 62 -43zM139 153q40 0 91.5 57.5t51.5 99.5q0 35 -28 35q-39 0 -92.5 -53t-53.5 -103q0 -11 4 -19.5t11 -12.5t16 -4z" />
    <glyph glyph-name="h" unicode="h" horiz-adv-x="469" 
d="M481 226q6 0 12 -16t1 -22q-19 -27 -28 -40t-36 -46.5t-46.5 -51.5t-46.5 -34t-50 -16q-40 0 -64.5 16.5t-31 41t-5.5 48t9 44.5q9 25 19.5 49.5t19.5 43t18 35.5t15 28t9.5 19.5t3.5 12.5t-7 4q-25 0 -70 -53.5t-84.5 -123.5t-49.5 -117q-2 -9 -3 -17q-1 -3 -1 -6
q-2 -14 -2 -27q0 -6 -6 -7q-28 -4 -53 6.5t-40 31t-15 46.5q0 43 37 129.5t86.5 170.5t104.5 147t86 63q17 0 31 -13.5t16 -37.5q0 -4 -3 -7q-17 -10 -60.5 -78t-85.5 -152q101 118 155 118q33 0 63.5 -19.5t30.5 -53.5q0 -25 -38 -91.5t-38 -98.5q0 -20 19 -20q10 0 23 7
t27 18.5t24.5 21.5t21 21.5t11.5 12.5q2 1 4.5 4t4 4t3.5 2.5t4 2t5 0.5z" />
    <glyph glyph-name="i" unicode="i" horiz-adv-x="265" 
d="M266 227q4 0 10.5 -8t9.5 -17.5t-1 -17.5q-17 -28 -39 -56t-52 -57.5t-64.5 -48t-66.5 -18.5q-47 0 -74 33.5t-27 82.5q0 53 31.5 126.5t74 125.5t71.5 52q38 0 57 -20.5t19 -36.5q0 -5 -28 -43.5t-55.5 -86t-27.5 -75.5q0 -12 6.5 -22t21.5 -10q21 0 45.5 15t42 33
t31 33.5t15.5 15.5zM251 432q-18 0 -33 8.5t-24 23t-9 32.5q0 26 19.5 45t47 19t47 -19t19.5 -45.5t-19.5 -45t-47.5 -18.5z" />
    <glyph glyph-name="i" unicode="&#xef;" horiz-adv-x="265" 
d="M266 227q4 0 10.5 -8t9.5 -17.5t-1 -17.5q-17 -28 -39 -56t-52 -57.5t-64.5 -48t-66.5 -18.5q-47 0 -74 33.5t-27 82.5q0 53 31.5 126.5t74 125.5t71.5 52q38 0 57 -20.5t19 -36.5q0 -5 -28 -43.5t-55.5 -86t-27.5 -75.5q0 -12 6.5 -22t21.5 -10q21 0 45.5 15t42 33
t31 33.5t15.5 15.5zM251 432q-18 0 -33 8.5t-24 23t-9 32.5q0 26 19.5 45t47 19t47 -19t19.5 -45.5t-19.5 -45t-47.5 -18.5z" />
    <glyph glyph-name="i" unicode="&#xee;" horiz-adv-x="265" 
d="M266 227q4 0 10.5 -8t9.5 -17.5t-1 -17.5q-17 -28 -39 -56t-52 -57.5t-64.5 -48t-66.5 -18.5q-47 0 -74 33.5t-27 82.5q0 53 31.5 126.5t74 125.5t71.5 52q38 0 57 -20.5t19 -36.5q0 -5 -28 -43.5t-55.5 -86t-27.5 -75.5q0 -12 6.5 -22t21.5 -10q21 0 45.5 15t42 33
t31 33.5t15.5 15.5zM251 432q-18 0 -33 8.5t-24 23t-9 32.5q0 26 19.5 45t47 19t47 -19t19.5 -45.5t-19.5 -45t-47.5 -18.5z" />
    <glyph glyph-name="i" unicode="&#xed;" horiz-adv-x="265" 
d="M266 227q4 0 10.5 -8t9.5 -17.5t-1 -17.5q-17 -28 -39 -56t-52 -57.5t-64.5 -48t-66.5 -18.5q-47 0 -74 33.5t-27 82.5q0 53 31.5 126.5t74 125.5t71.5 52q38 0 57 -20.5t19 -36.5q0 -5 -28 -43.5t-55.5 -86t-27.5 -75.5q0 -12 6.5 -22t21.5 -10q21 0 45.5 15t42 33
t31 33.5t15.5 15.5zM251 432q-18 0 -33 8.5t-24 23t-9 32.5q0 26 19.5 45t47 19t47 -19t19.5 -45.5t-19.5 -45t-47.5 -18.5z" />
    <glyph glyph-name="i" unicode="&#xec;" horiz-adv-x="265" 
d="M266 227q4 0 10.5 -8t9.5 -17.5t-1 -17.5q-17 -28 -39 -56t-52 -57.5t-64.5 -48t-66.5 -18.5q-47 0 -74 33.5t-27 82.5q0 53 31.5 126.5t74 125.5t71.5 52q38 0 57 -20.5t19 -36.5q0 -5 -28 -43.5t-55.5 -86t-27.5 -75.5q0 -12 6.5 -22t21.5 -10q21 0 45.5 15t42 33
t31 33.5t15.5 15.5zM251 432q-18 0 -33 8.5t-24 23t-9 32.5q0 26 19.5 45t47 19t47 -19t19.5 -45.5t-19.5 -45t-47.5 -18.5z" />
    <glyph glyph-name="j" unicode="j" horiz-adv-x="188" 
d="M216 436q-28 0 -47.5 18.5t-19.5 45t19.5 45.5t47.5 19t47.5 -19t19.5 -45q0 -18 -9 -32.5t-24.5 -23t-33.5 -8.5zM145 414q49 0 63 -43q4 -11 -6 -18q-20 -15 -53.5 -76t-62.5 -141q-18 -47 -32.5 -82t-35.5 -78.5t-43 -74t-48 -58t-58 -41.5t-66 -14q-75 0 -95 60
q-14 46 10 84q16 24 39 24q0 -9 17.5 -15t32.5 -6q18 0 34.5 8.5t29.5 20.5t27.5 34.5t24 40.5t23 50t21 51t20.5 55q6 16 9 25q31 84 70.5 139t78.5 55z" />
    <glyph glyph-name="k" unicode="k" horiz-adv-x="462" 
d="M459 223q13 0 19.5 -22t-0.5 -31l-6 -8.5t-10.5 -15.5t-14.5 -20t-18.5 -23t-21.5 -23.5t-25 -24t-27.5 -21t-30 -17.5t-31.5 -11.5t-33 -4.5q-35 0 -61 11.5t-41 26t-26.5 41t-16 43.5t-9.5 46q-40 -104 -42 -171q0 -6 -6 -7q-43 -6 -75.5 19.5t-32.5 64.5
q0 43 37 129.5t86.5 170.5t104.5 147t86 63q17 0 31 -13.5t16 -37.5q0 -4 -3 -7q-8 -4 -23 -24t-36 -52t-42 -71q61 41 119 41q26 0 43.5 -10t25.5 -26t11.5 -29t3.5 -26q0 -50 -35 -88t-84 -55.5t-98 -14.5q31 -53 98 -53q34 0 64.5 13t53 34.5t32 33t18.5 23.5zM179 283
q-4 -10 0.5 -20.5t15.5 -10.5q39 0 84 30.5t45 58.5q0 16 -21 16q-22 0 -69.5 -28.5t-54.5 -45.5z" />
    <glyph glyph-name="l" unicode="l" horiz-adv-x="267" 
d="M265 222q7 0 17 -18t3 -28q-4 -5 -11 -15q-21 -30 -33 -46.5t-33.5 -42t-38.5 -38.5t-40.5 -23.5t-45.5 -10.5q-69 0 -96 31.5t-27 84.5q0 50 25.5 116.5t64 126t80.5 111.5t78 83t53 31q20 0 33.5 -6t18.5 -16t7 -16.5t2 -13.5q-9 -8 -40.5 -51t-71.5 -101.5t-70.5 -122
t-30.5 -99.5q0 -12 6.5 -22.5t21.5 -10.5q20 0 43.5 15t40 33.5t30 33.5t14.5 15z" />
    <glyph glyph-name="m" unicode="m" horiz-adv-x="712" 
d="M723 227q7 0 14 -14t2 -20q-1 -2 -11 -17.5t-18 -27t-22.5 -30.5t-27 -33.5t-30 -31t-33 -27.5t-33.5 -18t-35 -7q-35 0 -58.5 16t-32 40.5t-8.5 49t7 44.5q17 45 39 89.5t34.5 68.5t12.5 29t-7 5q-30 0 -79.5 -45.5t-89.5 -113.5q-40 -77 -45 -103l-7 -43
q-3 -16 -18 -23t-30 1q-25 14 -38 40t-13 50t6 45q17 45 39 89.5t34.5 68.5t12.5 29t-7 5q-39 0 -104 -70.5t-104 -166.5q-21 -64 -23 -105q-1 -10 -11 -10q-91 5 -91 89q0 35 33 118t76.5 153.5t68.5 70.5q52 0 72 -40q7 -14 -3 -27q-12 -16 -27 -41q94 102 155 102
q34 0 64.5 -19.5t30.5 -54.5q0 -6 -3 -16q86 90 143 90q34 0 64.5 -19.5t30.5 -54.5q0 -24 -38 -90.5t-38 -98.5q0 -20 19 -20q9 0 22.5 7t27 18.5t24 21.5t21.5 21l12 12q1 2 4 4.5t4 4t3.5 3t4.5 2t4 0.5z" />
    <glyph glyph-name="n" unicode="n" horiz-adv-x="481" 
d="M489 223q7 0 12.5 -5t5.5 -12q0 -4 -11.5 -25.5t-32.5 -52.5t-47 -60.5t-60 -50t-65 -20.5q-40 0 -64 16t-29.5 41t-4 48.5t9.5 44.5q13 35 29.5 71t28 57.5t20 37.5t8.5 21t-7 5q-39 0 -104 -70.5t-103 -166.5q-22 -64 -24 -105q-1 -10 -11 -10q-91 5 -91 89
q0 35 33 118t76.5 153.5t68.5 70.5q52 0 72 -40q7 -14 -3 -27q-12 -16 -27 -41q94 102 155 102q34 0 64.5 -19.5t30.5 -54.5q0 -24 -38 -90.5t-38 -98.5q0 -20 19 -20q9 0 22.5 7t27 18.5t24 21.5t21.5 21l12 12q1 2 4 4.5t4 4t3 3t4.5 2t4.5 0.5z" />
    <glyph glyph-name="n" unicode="&#xf1;" horiz-adv-x="481" 
d="M489 223q7 0 12.5 -5t5.5 -12q0 -4 -11.5 -25.5t-32.5 -52.5t-47 -60.5t-60 -50t-65 -20.5q-40 0 -64 16t-29.5 41t-4 48.5t9.5 44.5q13 35 29.5 71t28 57.5t20 37.5t8.5 21t-7 5q-39 0 -104 -70.5t-103 -166.5q-22 -64 -24 -105q-1 -10 -11 -10q-91 5 -91 89
q0 35 33 118t76.5 153.5t68.5 70.5q52 0 72 -40q7 -14 -3 -27q-12 -16 -27 -41q94 102 155 102q34 0 64.5 -19.5t30.5 -54.5q0 -24 -38 -90.5t-38 -98.5q0 -20 19 -20q9 0 22.5 7t27 18.5t24 21.5t21.5 21l12 12q1 2 4 4.5t4 4t3 3t4.5 2t4.5 0.5z" />
    <glyph glyph-name="o" unicode="o" horiz-adv-x="373" 
d="M384 221q18 0 20 -22t-10 -37q-34 -48 -80 -73.5t-88 -14.5q-61 -75 -134 -75q-33 0 -57 11t-37 26.5t-20.5 36t-9 38t-0.5 33.5q10 113 76.5 191.5t153.5 78.5q58 0 87 -32t29 -89q0 -62 -42 -147q21 -4 41.5 7t32.5 26.5t22.5 28.5t15.5 13zM248 239q16 38 16 69
q0 23 -13.5 38.5t-39.5 15.5q-33 0 -76.5 -45.5t-43.5 -104.5q0 -26 8.5 -45t29.5 -19q18 0 35 5q0 24 12.5 46t32.5 33.5t39 6.5z" />
    <glyph glyph-name="o" unicode="&#xf8;" horiz-adv-x="373" 
d="M384 221q18 0 20 -22t-10 -37q-34 -48 -80 -73.5t-88 -14.5q-61 -75 -134 -75q-33 0 -57 11t-37 26.5t-20.5 36t-9 38t-0.5 33.5q10 113 76.5 191.5t153.5 78.5q58 0 87 -32t29 -89q0 -62 -42 -147q21 -4 41.5 7t32.5 26.5t22.5 28.5t15.5 13zM248 239q16 38 16 69
q0 23 -13.5 38.5t-39.5 15.5q-33 0 -76.5 -45.5t-43.5 -104.5q0 -26 8.5 -45t29.5 -19q18 0 35 5q0 24 12.5 46t32.5 33.5t39 6.5z" />
    <glyph glyph-name="o" unicode="&#xf6;" horiz-adv-x="373" 
d="M384 221q18 0 20 -22t-10 -37q-34 -48 -80 -73.5t-88 -14.5q-61 -75 -134 -75q-33 0 -57 11t-37 26.5t-20.5 36t-9 38t-0.5 33.5q10 113 76.5 191.5t153.5 78.5q58 0 87 -32t29 -89q0 -62 -42 -147q21 -4 41.5 7t32.5 26.5t22.5 28.5t15.5 13zM248 239q16 38 16 69
q0 23 -13.5 38.5t-39.5 15.5q-33 0 -76.5 -45.5t-43.5 -104.5q0 -26 8.5 -45t29.5 -19q18 0 35 5q0 24 12.5 46t32.5 33.5t39 6.5z" />
    <glyph glyph-name="o" unicode="&#xf5;" horiz-adv-x="373" 
d="M384 221q18 0 20 -22t-10 -37q-34 -48 -80 -73.5t-88 -14.5q-61 -75 -134 -75q-33 0 -57 11t-37 26.5t-20.5 36t-9 38t-0.5 33.5q10 113 76.5 191.5t153.5 78.5q58 0 87 -32t29 -89q0 -62 -42 -147q21 -4 41.5 7t32.5 26.5t22.5 28.5t15.5 13zM248 239q16 38 16 69
q0 23 -13.5 38.5t-39.5 15.5q-33 0 -76.5 -45.5t-43.5 -104.5q0 -26 8.5 -45t29.5 -19q18 0 35 5q0 24 12.5 46t32.5 33.5t39 6.5z" />
    <glyph glyph-name="o" unicode="&#xf4;" horiz-adv-x="373" 
d="M384 221q18 0 20 -22t-10 -37q-34 -48 -80 -73.5t-88 -14.5q-61 -75 -134 -75q-33 0 -57 11t-37 26.5t-20.5 36t-9 38t-0.5 33.5q10 113 76.5 191.5t153.5 78.5q58 0 87 -32t29 -89q0 -62 -42 -147q21 -4 41.5 7t32.5 26.5t22.5 28.5t15.5 13zM248 239q16 38 16 69
q0 23 -13.5 38.5t-39.5 15.5q-33 0 -76.5 -45.5t-43.5 -104.5q0 -26 8.5 -45t29.5 -19q18 0 35 5q0 24 12.5 46t32.5 33.5t39 6.5z" />
    <glyph glyph-name="o" unicode="&#xf3;" horiz-adv-x="373" 
d="M384 221q18 0 20 -22t-10 -37q-34 -48 -80 -73.5t-88 -14.5q-61 -75 -134 -75q-33 0 -57 11t-37 26.5t-20.5 36t-9 38t-0.5 33.5q10 113 76.5 191.5t153.5 78.5q58 0 87 -32t29 -89q0 -62 -42 -147q21 -4 41.5 7t32.5 26.5t22.5 28.5t15.5 13zM248 239q16 38 16 69
q0 23 -13.5 38.5t-39.5 15.5q-33 0 -76.5 -45.5t-43.5 -104.5q0 -26 8.5 -45t29.5 -19q18 0 35 5q0 24 12.5 46t32.5 33.5t39 6.5z" />
    <glyph glyph-name="o" unicode="&#xf2;" horiz-adv-x="373" 
d="M384 221q18 0 20 -22t-10 -37q-34 -48 -80 -73.5t-88 -14.5q-61 -75 -134 -75q-33 0 -57 11t-37 26.5t-20.5 36t-9 38t-0.5 33.5q10 113 76.5 191.5t153.5 78.5q58 0 87 -32t29 -89q0 -62 -42 -147q21 -4 41.5 7t32.5 26.5t22.5 28.5t15.5 13zM248 239q16 38 16 69
q0 23 -13.5 38.5t-39.5 15.5q-33 0 -76.5 -45.5t-43.5 -104.5q0 -26 8.5 -45t29.5 -19q18 0 35 5q0 24 12.5 46t32.5 33.5t39 6.5z" />
    <glyph glyph-name="p" unicode="p" horiz-adv-x="467" 
d="M334 412q49 0 77 -28.5t28 -78.5q0 -57 -40 -130t-100 -125.5t-111 -52.5q-29 0 -51 11.5t-34 30t-18.5 37t-8.5 37.5q-63 -148 -65 -237q0 -6 -6 -7q-43 -6 -75.5 19t-32.5 65q0 57 52.5 175.5t122 216t111.5 97.5q20 0 38 -10t19 -33q1 -4 -3 -7q-7 -4 -20 -21
q62 41 117 41zM167 147q33 0 71.5 32t63 70.5t24.5 60.5q0 28 -29 28q-35 0 -76 -32.5t-70 -78.5q-5 -8 -9.5 -20t-7 -26.5t5.5 -24t27 -9.5z" />
    <glyph glyph-name="q" unicode="q" horiz-adv-x="447" 
d="M436 412q16 0 30.5 -13.5t16.5 -37.5q0 -4 -4 -7q-15 -9 -53.5 -69t-80.5 -139t-75 -170t-34 -151q-1 -6 -7 -7q-42 -6 -74.5 19.5t-32.5 64.5q0 47 44 147q-61 -49 -119 -49q-29 0 -54.5 28.5t-25.5 70.5q0 65 20.5 120t51.5 90t68 59.5t68 35t54 10.5q45 0 69 -23.5
t24 -65.5v-10q74 97 114 97zM131 149q40 0 91.5 57.5t51.5 99.5q0 35 -28 35q-39 0 -92.5 -53t-53.5 -103q0 -17 8.5 -26.5t22.5 -9.5z" />
    <glyph glyph-name="r" unicode="r" horiz-adv-x="415" 
d="M413 217q13 0 17.5 -24t-2.5 -33q-115 -164 -207 -164q-42 0 -69.5 26.5t-31.5 69.5q-4 48 36 122q26 49 50 78q5 6 3 9.5t-13 0.5q-17 -3 -49 -4q-31 -1 -49 2q-56 -89 -105 -157q-4 -5 -25 3.5t-21 20.5q29 31 60 74t44 71q-43 21 -43 62q0 19 14.5 36t31.5 17
q14 -16 22.5 -23t27.5 -13.5t46 -7.5q5 -1 11 -1q30 0 59.5 8.5t48.5 16.5t24 8q7 0 24.5 -10t32 -24t13.5 -23q0 -6 -17 -31t-36.5 -53t-36 -61.5t-16.5 -54.5q0 -16 4 -24.5t11 -10.5t20 -2q16 0 37.5 14t36.5 29.5t30.5 34t16.5 18.5z" />
    <glyph glyph-name="s" unicode="s" horiz-adv-x="252" 
d="M183 438q60 0 61 -53q0 -20 -6 -40.5t-12 -19.5q-19 4 -33 -11t-21 -40q-8 -29 2 -76.5t20 -96.5t1 -81t-31.5 -58.5t-60.5 -43.5t-85 -17q-33 0 -59.5 12.5t-40.5 32.5t-21 39.5t-7 37.5q0 31 10 52.5t25.5 31.5t29.5 14t28 4q16 0 16 -19q0 -22 4.5 -36.5t13.5 -20.5
t16 -8t17 -2q22 0 38.5 19.5t16.5 37.5q0 16 -7.5 37.5t-20 51t-19.5 48.5q-12 -18 -33 -48t-24 -34q-9 -9 -20 -5t-20 15l-9 10q64 70 96 118q-1 26 6 48q18 49 51.5 75t77.5 26z" />
    <glyph glyph-name="s" unicode="&#xdf;" horiz-adv-x="252" 
d="M183 438q60 0 61 -53q0 -20 -6 -40.5t-12 -19.5q-19 4 -33 -11t-21 -40q-8 -29 2 -76.5t20 -96.5t1 -81t-31.5 -58.5t-60.5 -43.5t-85 -17q-33 0 -59.5 12.5t-40.5 32.5t-21 39.5t-7 37.5q0 31 10 52.5t25.5 31.5t29.5 14t28 4q16 0 16 -19q0 -22 4.5 -36.5t13.5 -20.5
t16 -8t17 -2q22 0 38.5 19.5t16.5 37.5q0 16 -7.5 37.5t-20 51t-19.5 48.5q-12 -18 -33 -48t-24 -34q-9 -9 -20 -5t-20 15l-9 10q64 70 96 118q-1 26 6 48q18 49 51.5 75t77.5 26z" />
    <glyph glyph-name="t" unicode="t" horiz-adv-x="281" 
d="M230 338q-14 0 -31 3q-79 -128 -79 -187q0 -12 6.5 -22t21.5 -10q20 0 43.5 15t40 33t30 33.5t15.5 15.5q16 0 16 -22q0 -28 -28.5 -75.5t-75 -86.5t-87.5 -39q-69 0 -100 32t-31 84q0 114 115 281q-12 8 -31 20.5t-30.5 20t-25.5 15.5t-24.5 11.5t-18.5 3.5q0 21 22 40
t51 19q11 0 27 -7t45 -22.5t43 -22.5q41 49 76 79.5t52 30.5q20 0 33.5 -6.5t18.5 -16t7 -16.5t2 -13q-16 -16 -68 -89q23 1 37 6t17 11t5 10.5t5 4.5q10 0 20 -13t10 -33q0 -12 -6 -26t-19 -28.5t-40 -24t-64 -9.5z" />
    <glyph glyph-name="u" unicode="u" horiz-adv-x="522" 
d="M522 219q17 0 17 -22q0 -28 -34.5 -76t-86 -86.5t-92.5 -38.5q-43 0 -69 31.5t-28 77.5q-36 -45 -81.5 -77t-83.5 -32q-45 0 -71 33.5t-26 82.5q0 53 30.5 126.5t71.5 125.5t68 52q37 0 55 -20.5t18 -36.5q0 -5 -26.5 -43.5t-53 -86t-26.5 -75.5q0 -12 6 -22t21 -10
q16 0 33 8t35.5 26t25.5 25t23 26q26 77 73 143t78 66q37 0 55 -20.5t18 -36.5q0 -5 -26.5 -43.5t-53 -86t-26.5 -75.5q0 -12 6 -22t21 -10q14 0 29.5 7t28.5 18t25.5 23.5t21.5 23t15.5 18t8.5 7.5z" />
    <glyph glyph-name="u" unicode="&#xfc;" horiz-adv-x="522" 
d="M522 219q17 0 17 -22q0 -28 -34.5 -76t-86 -86.5t-92.5 -38.5q-43 0 -69 31.5t-28 77.5q-36 -45 -81.5 -77t-83.5 -32q-45 0 -71 33.5t-26 82.5q0 53 30.5 126.5t71.5 125.5t68 52q37 0 55 -20.5t18 -36.5q0 -5 -26.5 -43.5t-53 -86t-26.5 -75.5q0 -12 6 -22t21 -10
q16 0 33 8t35.5 26t25.5 25t23 26q26 77 73 143t78 66q37 0 55 -20.5t18 -36.5q0 -5 -26.5 -43.5t-53 -86t-26.5 -75.5q0 -12 6 -22t21 -10q14 0 29.5 7t28.5 18t25.5 23.5t21.5 23t15.5 18t8.5 7.5z" />
    <glyph glyph-name="u" unicode="&#xfb;" horiz-adv-x="522" 
d="M522 219q17 0 17 -22q0 -28 -34.5 -76t-86 -86.5t-92.5 -38.5q-43 0 -69 31.5t-28 77.5q-36 -45 -81.5 -77t-83.5 -32q-45 0 -71 33.5t-26 82.5q0 53 30.5 126.5t71.5 125.5t68 52q37 0 55 -20.5t18 -36.5q0 -5 -26.5 -43.5t-53 -86t-26.5 -75.5q0 -12 6 -22t21 -10
q16 0 33 8t35.5 26t25.5 25t23 26q26 77 73 143t78 66q37 0 55 -20.5t18 -36.5q0 -5 -26.5 -43.5t-53 -86t-26.5 -75.5q0 -12 6 -22t21 -10q14 0 29.5 7t28.5 18t25.5 23.5t21.5 23t15.5 18t8.5 7.5z" />
    <glyph glyph-name="u" unicode="&#xfa;" horiz-adv-x="522" 
d="M522 219q17 0 17 -22q0 -28 -34.5 -76t-86 -86.5t-92.5 -38.5q-43 0 -69 31.5t-28 77.5q-36 -45 -81.5 -77t-83.5 -32q-45 0 -71 33.5t-26 82.5q0 53 30.5 126.5t71.5 125.5t68 52q37 0 55 -20.5t18 -36.5q0 -5 -26.5 -43.5t-53 -86t-26.5 -75.5q0 -12 6 -22t21 -10
q16 0 33 8t35.5 26t25.5 25t23 26q26 77 73 143t78 66q37 0 55 -20.5t18 -36.5q0 -5 -26.5 -43.5t-53 -86t-26.5 -75.5q0 -12 6 -22t21 -10q14 0 29.5 7t28.5 18t25.5 23.5t21.5 23t15.5 18t8.5 7.5z" />
    <glyph glyph-name="u" unicode="&#xf9;" horiz-adv-x="522" 
d="M522 219q17 0 17 -22q0 -28 -34.5 -76t-86 -86.5t-92.5 -38.5q-43 0 -69 31.5t-28 77.5q-36 -45 -81.5 -77t-83.5 -32q-45 0 -71 33.5t-26 82.5q0 53 30.5 126.5t71.5 125.5t68 52q37 0 55 -20.5t18 -36.5q0 -5 -26.5 -43.5t-53 -86t-26.5 -75.5q0 -12 6 -22t21 -10
q16 0 33 8t35.5 26t25.5 25t23 26q26 77 73 143t78 66q37 0 55 -20.5t18 -36.5q0 -5 -26.5 -43.5t-53 -86t-26.5 -75.5q0 -12 6 -22t21 -10q14 0 29.5 7t28.5 18t25.5 23.5t21.5 23t15.5 18t8.5 7.5z" />
    <glyph glyph-name="v" unicode="v" horiz-adv-x="424" 
d="M348 445q75 -8 75 -105q0 -46 -65.5 -128.5t-148.5 -147t-128 -64.5q-16 0 -33 5t-35.5 17t-30.5 38t-12 61q0 42 15 97t35.5 99t41.5 75t33 31q19 0 36 -4.5t30 -11t22 -15.5t13 -19.5t-5 -15.5q-31 -16 -74 -97.5t-43 -119.5q0 -15 10 -15q19 0 77 60.5t112 136.5
t62 114q2 11 13 9z" />
    <glyph glyph-name="w" unicode="w" horiz-adv-x="649" 
d="M577 427q58 -26 58 -103q0 -35 -17 -80t-48 -90t-69.5 -83.5t-85 -62.5t-89.5 -24q-13 0 -26 3t-29 11t-28 20.5t-20 35t-8 51.5q-34 -52 -72 -86.5t-72 -34.5q-13 0 -26 3t-28.5 11t-28 21t-20.5 35.5t-8 50.5q0 42 15 97t35.5 99t41.5 75t33 31q24 0 45.5 -7
t35.5 -17.5t19 -23.5q5 -12 -5 -18q-32 -20 -75 -98q-53 -97 -32 -126q6 -8 20 -8q25 0 69 43.5t79 97.5q11 34 25 62t27.5 44t22.5 16q36 0 64 -14t37 -34q4 -12 -6 -18q-32 -21 -67 -87q-42 -81 -16 -104q7 -6 19.5 -6t34 13t46.5 39.5t48.5 61t40.5 82.5t22 99
q1 14 13 21.5t25 1.5z" />
    <glyph glyph-name="x" unicode="x" horiz-adv-x="568" 
d="M579 214q10 0 24.5 -9.5t9.5 -19.5q-4 -8 -11.5 -19.5t-24.5 -36.5t-38.5 -46.5t-47.5 -43t-59.5 -34.5t-67.5 -13q-50 0 -79 31t-54 92q-54 -61 -90 -90t-75 -29q-29 0 -54 21.5t-29 68.5q-1 11 8.5 19t20.5 5q80 -20 193 73q-3 7 -8.5 23t-9 25.5t-8.5 23.5t-9.5 22
t-9.5 16.5t-10 12.5t-10 4q-21 0 -161 -188q-1 -1 -6 6q-20 32 -12 52l3 5q13 16 38 52.5t47.5 70.5t23.5 34q17 25 45.5 41.5t55.5 16.5q19 0 36 -8t27.5 -17.5t22.5 -31.5t17 -34t17 -40l21 21q72 74 106 99.5t74 25.5q68 0 58 -75q-1 -8 -6.5 -13t-13.5 -6
q-35 -2 -53 -4.5t-44 -13t-52.5 -32t-64.5 -59.5q22 -43 52 -67t78 -24q19 0 39 9.5t35 23t27 27.5t19.5 23.5t9.5 9.5z" />
    <glyph glyph-name="y" unicode="y" horiz-adv-x="421" 
d="M439 366q3 -12 -6 -18q-20 -14 -52 -73.5t-61 -138.5q-21 -55 -38 -95.5t-44 -89.5t-54 -80t-63.5 -52.5t-77.5 -21.5q-73 0 -92 59q-14 45 11 82q15 23 37 23q0 -9 17 -14.5t32 -5.5q64 0 120 115q-64 -56 -113 -56q-44 0 -69.5 33t-25.5 80q0 39 18.5 92t44 97.5
t54.5 76t49 31.5q36 0 53.5 -20t17.5 -36q0 -5 -26 -42.5t-52 -83.5t-26 -74q0 -12 6.5 -21.5t20.5 -9.5q41 0 103 70q6 17 9 25q31 82 69.5 135.5t76.5 53.5q47 0 61 -41z" />
    <glyph glyph-name="y" unicode="&#xff;" horiz-adv-x="421" 
d="M439 366q3 -12 -6 -18q-20 -14 -52 -73.5t-61 -138.5q-21 -55 -38 -95.5t-44 -89.5t-54 -80t-63.5 -52.5t-77.5 -21.5q-73 0 -92 59q-14 45 11 82q15 23 37 23q0 -9 17 -14.5t32 -5.5q64 0 120 115q-64 -56 -113 -56q-44 0 -69.5 33t-25.5 80q0 39 18.5 92t44 97.5
t54.5 76t49 31.5q36 0 53.5 -20t17.5 -36q0 -5 -26 -42.5t-52 -83.5t-26 -74q0 -12 6.5 -21.5t20.5 -9.5q41 0 103 70q6 17 9 25q31 82 69.5 135.5t76.5 53.5q47 0 61 -41z" />
    <glyph glyph-name="y" unicode="&#xfd;" horiz-adv-x="421" 
d="M439 366q3 -12 -6 -18q-20 -14 -52 -73.5t-61 -138.5q-21 -55 -38 -95.5t-44 -89.5t-54 -80t-63.5 -52.5t-77.5 -21.5q-73 0 -92 59q-14 45 11 82q15 23 37 23q0 -9 17 -14.5t32 -5.5q64 0 120 115q-64 -56 -113 -56q-44 0 -69.5 33t-25.5 80q0 39 18.5 92t44 97.5
t54.5 76t49 31.5q36 0 53.5 -20t17.5 -36q0 -5 -26 -42.5t-52 -83.5t-26 -74q0 -12 6.5 -21.5t20.5 -9.5q41 0 103 70q6 17 9 25q31 82 69.5 135.5t76.5 53.5q47 0 61 -41z" />
    <glyph glyph-name="z" unicode="z" horiz-adv-x="457" 
d="M454 326q1 -5 1 -6q0 -7 -4 -12q-1 -2 -2 -1q-2 -3 -5 -4q-49 -17 -149 -74t-171 -112q94 15 209 15q27 0 42.5 -3t21.5 -12t7.5 -16t1.5 -22v-5q0 -24 -21 -50.5t-44 -26.5q-46 24 -143 24.5t-167 -25.5q-4 -2 -12.5 -1t-11.5 6q-8 18 -12 35q-5 11 -3 27
q13 28 106.5 107.5t190.5 146.5q-92 -4 -145 -20q-22 -6 -50.5 -37t-125.5 -152q-9 -11 -19 9q-16 29 1 52q1 1 2 3q8 8 43.5 61.5t72 101.5t52.5 56q46 21 163.5 25t139.5 -14q9 -7 17 -21.5t11.5 -29t2.5 -25.5z" />
    <glyph glyph-name="nonbreakingspace" unicode="&#xa0;" horiz-adv-x="303" 
 />
    <glyph glyph-name="softhyphen" unicode="&#xad;" 
 />
    <glyph glyph-name="Euro" unicode="&#x20ac;" horiz-adv-x="632" 
d="M582 565q0 -49 -46 -61q-31 -8 -43 4q-5 5 -1 10q15 25 15 52q0 13 -8.5 21.5t-24.5 8.5q-34 0 -79.5 -37t-85.5 -94q23 -1 40 -2q22 -2 36.5 -8.5t19 -14.5t5 -16.5t-3 -15.5t-8.5 -11q-16 13 -121 18q-18 -32 -30 -63q36 -1 63 -3q22 -2 36 -8.5t19 -14.5t5.5 -16.5
t-3 -15.5t-8.5 -12q-17 14 -128 19q-5 -23 -5 -43q0 -106 79 -106q39 0 74.5 14.5t59 35.5t41.5 42t29.5 36t14.5 15q10 0 10 -13t-9 -35.5t-30 -50.5t-48.5 -52.5t-70 -41t-89.5 -16.5q-73 0 -108.5 52t-35.5 138q0 12 1 27q-78 0 -92 -7q-5 4 -0.5 21t14.5 26q8 7 86 9
q9 33 23 65q-71 0 -84 -6q-4 3 0 20t14 26q9 8 96 10q52 85 129 141.5t140 56.5q21 0 37.5 -3t35 -12.5t29 -32t10.5 -56.5z" />
    <glyph glyph-name="n.alt1" unicode="&#xf010;" horiz-adv-x="428" 
d="M547 -44q92 0 123 -61q27 -52 -9 -108q-45 -69 -150 -78q-12 -1 -25 -1q-69 0 -130.5 26.5t-104.5 74.5q-16 -6 -71 -28.5t-77 -30.5t-71.5 -26.5t-79 -26.5t-71.5 -18.5t-79 -14.5t-73 -4q-67 0 -118 15t-79 39.5t-41.5 52t-13.5 56.5q0 17 3 32.5t7 26t11 22t10.5 16.5
t10.5 13.5t8 8.5q24 -42 74.5 -67.5t121.5 -25.5q151 0 256.5 14.5t215.5 40.5q-27 78 -11 170q14 74 69 179q5 11 11.5 23t10 19.5t7.5 15t5.5 12t1.5 6.5v2q-3 2 -7 3q-39 0 -104 -70.5t-103 -166.5q-21 -64 -24 -105q0 -10 -11 -10q-90 5 -90 89q0 35 32.5 117.5
t76 153.5t69.5 71q52 0 72 -40q7 -14 -3 -27q-12 -16 -27 -41q42 46 81 73q35 25 65 28h1q4 1 8 1h3h1q20 -1 39.5 -8t35 -23.5t15.5 -38.5v-1v-3q0 -10 -4 -22q-6 -23 -32 -68.5t-35 -70.5v-1q-1 0 -1 -1q-52 -132 -24 -237q113 23 224 23zM512 -214q44 0 78 14.5t34 44.5
q0 11 -4.5 19.5t-12.5 14.5t-19.5 9.5t-26.5 3.5q-79 0 -196 -40q55 -66 147 -66z" />
    <glyph glyph-name="er.dlig" unicode="&#xf034;" horiz-adv-x="724" 
d="M636 72q1 -15 5 -30.5t13 -33t23 -30.5t36.5 -21.5t50.5 -8.5q-7 -23 -39.5 -47.5t-78 -37.5t-82.5 -5q-54 13 -78.5 53t-24.5 98q0 57 40 144.5t84 152t72 92.5l-8 -4t-9 -4t-11 -3t-17 -2.5t-24 -1.5t-35 -1q-13 0 -27 2q-3 -5 -27 -48t-45.5 -79.5t-61.5 -87
t-80 -85.5t-96.5 -60t-114.5 -25h-1q-12 0 -26 2t-33.5 10.5t-34.5 22t-26 39t-11 58.5q0 44 21.5 95.5t56 95t84.5 72.5t101 29q48 0 84 -24.5t36 -55.5q0 -43 -28.5 -77t-67.5 -49.5t-79 -15.5q-49 0 -73 26q-11 -35 -1 -61t31 -33q85 -30 186 60q52 52 98.5 112.5
t61.5 91.5q-23 0 -42 19t-19 43q0 37 21 56t42 19q15 -16 24.5 -23.5t31 -14t54.5 -6.5q30 0 59.5 2.5t49 5t24.5 2.5q12 0 42 -22t28 -36q0 -4 -17.5 -27t-42 -58t-48.5 -78t-39 -98.5t-12 -108.5zM237 353q-22 5 -61 -25t-61 -74q-1 0 -1 -1q-1 -1 -1 -2q63 4 100.5 30
t37.5 49q0 19 -14 23z" />
    </font>
</defs>
</svg>
